<svg width="50" height="50" viewBox="0 0 50 50" fill="none" xmlns="http://www.w3.org/2000/svg">
<path d="M9.83567 1.53485C9.97138 1.53441 10.1071 1.53389 10.2428 1.5333C10.6144 1.53192 10.9859 1.53175 11.3575 1.5318C11.7588 1.53163 12.1601 1.53036 12.5614 1.52924C13.4383 1.52701 14.3152 1.52623 15.1921 1.52574C15.7402 1.52542 16.2883 1.52478 16.8364 1.52408C18.3554 1.52217 19.8744 1.52057 21.3934 1.52028C21.4905 1.52026 21.5877 1.52025 21.6878 1.52023C21.8847 1.52019 22.0816 1.52015 22.2785 1.52012C22.4251 1.52009 22.4251 1.52009 22.5747 1.52007C22.7215 1.52004 22.7215 1.52004 22.8712 1.52001C24.4558 1.51967 26.0404 1.51703 27.625 1.51338C29.2538 1.50965 30.8827 1.50777 32.5115 1.50774C33.4252 1.50768 34.339 1.50686 35.2527 1.50403C36.031 1.50162 36.8093 1.50093 37.5876 1.50239C37.9841 1.50309 38.3806 1.50302 38.7772 1.50079C41.1013 1.48849 43.0054 1.60049 44.7895 3.27251C46.4443 4.9923 46.6323 6.99179 46.624 9.25968C46.6242 9.45169 46.6245 9.64371 46.6248 9.83572C46.6253 10.2352 46.6246 10.6348 46.6233 11.0343C46.6216 11.5434 46.6226 12.0525 46.6243 12.5616C46.6254 12.9571 46.625 13.3525 46.6243 13.748C46.6241 13.9356 46.6243 14.1233 46.625 14.3109C46.6293 15.812 46.5832 17.2245 45.5002 18.3837C44.3756 19.4345 43.1694 19.5641 41.6702 19.5494C41.5613 19.5492 41.4524 19.5489 41.3402 19.5486C40.997 19.5475 40.6539 19.5451 40.3107 19.5426C40.076 19.5416 39.8414 19.5407 39.6068 19.5399C39.0358 19.5378 38.4647 19.5345 37.8937 19.5304C37.8938 19.5869 37.894 19.6434 37.8941 19.7017C37.9029 23.0525 37.9096 26.4033 37.9136 29.7542C37.9141 30.1566 37.9146 30.559 37.9151 30.9614C37.9152 31.0415 37.9153 31.1216 37.9154 31.2041C37.9171 32.501 37.9202 33.7979 37.9238 35.0947C37.9275 36.4256 37.9296 37.7565 37.9304 39.0873C37.9309 39.9085 37.9326 40.7296 37.9358 41.5507C37.9379 42.1139 37.9385 42.677 37.938 43.2402C37.9377 43.5651 37.9383 43.8899 37.9402 44.2148C37.9422 44.5673 37.9417 44.9198 37.9406 45.2724C37.9418 45.3746 37.9429 45.4768 37.9441 45.5821C37.9381 46.3079 37.7922 46.8311 37.3146 47.3861C36.7415 47.867 36.2625 48.1029 35.5026 48.0745C34.5839 47.968 33.7701 47.3692 33.0047 46.8924C32.8857 46.819 32.7665 46.7457 32.6473 46.6725C32.4639 46.5598 32.2805 46.447 32.0973 46.334C31.4592 45.9406 30.8162 45.5557 30.1727 45.1712C29.9721 45.0514 29.7716 44.9315 29.5711 44.8115C29.4878 44.7617 29.4044 44.712 29.3186 44.6607C29.147 44.5562 28.9787 44.4465 28.8116 44.3351C28.2768 44.3573 27.8927 44.5301 27.4464 44.8069C27.3832 44.8448 27.3201 44.8827 27.255 44.9218C27.051 45.0445 26.8479 45.1689 26.6449 45.2933C26.504 45.3785 26.363 45.4636 26.2219 45.5486C25.9428 45.717 25.6641 45.886 25.3857 46.0556C24.9753 46.3054 24.563 46.552 24.1504 46.7981C23.6545 47.094 23.1591 47.3902 22.6703 47.6977C22.583 47.7524 22.583 47.7524 22.494 47.8083C22.3445 47.9024 22.1955 47.9974 22.0466 48.0925C21.6202 48.3308 21.2137 48.4651 20.7245 48.4732C20.6493 48.476 20.5742 48.4788 20.4967 48.4816C19.551 48.329 18.7009 47.6837 17.8924 47.1976C17.7551 47.1155 17.6178 47.0334 17.4804 46.9514C13.8974 44.8089 13.8974 44.8089 13.1866 44.3351C12.7119 44.2823 12.4544 44.3813 12.0552 44.633C11.9496 44.6984 11.8441 44.7639 11.7354 44.8313C11.6516 44.8845 11.6516 44.8845 11.5661 44.9388C11.3283 45.0897 11.0887 45.2377 10.8492 45.386C10.7219 45.4649 10.5947 45.5439 10.4675 45.623C9.77402 46.0545 9.0734 46.4738 8.37119 46.891C8.16618 47.0129 7.9615 47.1353 7.75684 47.2578C7.63006 47.3333 7.50327 47.4087 7.37646 47.4841C7.3193 47.5184 7.26214 47.5527 7.20325 47.5881C6.51619 47.9946 5.97572 48.1475 5.17882 48.046C4.54308 47.8502 4.11562 47.5339 3.72923 46.997C3.46592 46.4828 3.39656 45.9775 3.39615 45.4061C3.39584 45.3402 3.39553 45.2742 3.3952 45.2063C3.39439 44.9861 3.39497 44.7659 3.39554 44.5456C3.39525 44.3858 3.39487 44.226 3.39441 44.0662C3.39341 43.6277 3.39362 43.1891 3.39404 42.7505C3.39428 42.2772 3.3934 41.804 3.39267 41.3307C3.39142 40.4035 3.39125 39.4764 3.39148 38.5492C3.39165 37.7952 3.39148 37.0412 3.39106 36.2873C3.39101 36.1799 3.39095 36.0726 3.39089 35.962C3.39077 35.744 3.39065 35.5259 3.39053 35.3079C3.38947 33.2624 3.38968 31.2169 3.39028 29.1715C3.39078 27.3021 3.38968 25.4327 3.38783 23.5633C3.38593 21.6427 3.38513 19.7221 3.38549 17.8015C3.38568 16.7236 3.38544 15.6458 3.38406 14.568C3.38289 13.65 3.38276 12.732 3.38394 11.814C3.38451 11.346 3.38463 10.8781 3.38345 10.4101C3.38238 9.98075 3.3827 9.55141 3.38406 9.12206C3.38432 8.96768 3.38409 8.8133 3.38331 8.65893C3.37724 7.37985 3.43549 6.00689 4.05577 4.85752C4.10574 4.7618 4.10574 4.7618 4.15671 4.66414C5.00618 3.11823 6.38228 2.17659 8.04361 1.65459C8.63377 1.51055 9.23166 1.53371 9.83567 1.53485ZM7.33946 5.74863C6.76966 6.45033 6.63134 7.17116 6.63164 8.06502C6.63145 8.19375 6.63125 8.32249 6.63105 8.45512C6.63133 8.59733 6.63162 8.73953 6.63192 8.88174C6.63187 9.0333 6.63179 9.18486 6.63166 9.33642C6.63144 9.75263 6.63183 10.1688 6.63232 10.5851C6.63275 11.034 6.6326 11.4829 6.63253 11.9319C6.63248 12.7096 6.63279 13.4873 6.63333 14.265C6.63413 15.3895 6.63438 16.5139 6.6345 17.6384C6.63472 19.4627 6.63537 21.2871 6.63629 23.1114C6.63719 24.8836 6.63788 26.6558 6.63829 28.4281C6.63832 28.5373 6.63835 28.6465 6.63837 28.7591C6.6385 29.3071 6.63862 29.855 6.63874 30.403C6.63976 34.9494 6.64148 39.4957 6.64366 44.0421C7.03117 43.8922 7.36864 43.7139 7.72284 43.4954C7.77866 43.4612 7.83449 43.427 7.89201 43.3917C8.01088 43.3188 8.12966 43.2457 8.24835 43.1726C8.55601 42.983 8.86457 42.795 9.17319 42.607C9.23356 42.5702 9.29394 42.5334 9.35614 42.4955C9.82765 42.2089 10.3017 41.9275 10.7818 41.6556C10.8408 41.6218 10.8998 41.588 10.9605 41.5532C11.5968 41.1975 12.1392 41.0752 12.857 41.0697C12.9284 41.0665 12.9998 41.0633 13.0733 41.06C14.1825 41.0494 15.1344 41.6838 16.0455 42.2524C16.2188 42.3605 16.3926 42.4676 16.5666 42.5744C16.8119 42.725 17.0568 42.8761 17.3015 43.0276C17.8704 43.3795 18.4405 43.7293 19.0114 44.0778C19.1897 44.1869 19.3675 44.2966 19.5453 44.4063C19.6535 44.4724 19.7616 44.5385 19.873 44.6067C20.0157 44.6944 20.0157 44.6944 20.1612 44.7839C20.4674 44.9572 20.4674 44.9572 20.8038 45.0187C21.0774 44.9046 21.0774 44.9046 21.3653 44.7234C21.4203 44.6909 21.4752 44.6584 21.5318 44.6249C21.713 44.5172 21.8932 44.4078 22.0733 44.2984C22.1993 44.2232 22.3254 44.148 22.4515 44.0729C22.8474 43.8366 23.2418 43.5978 23.6358 43.3585C23.7003 43.3194 23.7647 43.2803 23.8311 43.24C24.022 43.124 24.2129 43.008 24.4037 42.892C24.4653 42.8545 24.5268 42.8171 24.5903 42.7786C24.8849 42.5994 25.1792 42.4197 25.4728 42.2389C27.3527 41.0869 27.3527 41.0869 28.4881 41.0758C28.6154 41.073 28.7427 41.0702 28.8738 41.0674C30.0117 41.14 30.9854 41.8361 31.9305 42.4124C32.0662 42.4944 32.202 42.5762 32.3377 42.6579C32.5312 42.7744 32.7245 42.8909 32.9175 43.0082C33.3126 43.2482 33.7108 43.4827 34.1102 43.7154C34.2679 43.8073 34.2679 43.8073 34.4288 43.9011C34.5087 43.9476 34.5887 43.9941 34.671 44.0421C34.6711 43.9248 34.6711 43.9248 34.6713 43.8051C34.677 39.1674 34.6842 34.5297 34.6934 29.892C34.6945 29.3349 34.6956 28.7778 34.6966 28.2206C34.6968 28.1097 34.6971 27.9988 34.6973 27.8845C34.7007 26.0898 34.7032 24.2951 34.7052 22.5003C34.7073 20.6581 34.7106 18.8158 34.7148 16.9736C34.7174 15.8373 34.7191 14.701 34.7198 13.5647C34.7203 12.785 34.7219 12.0052 34.7243 11.2255C34.7257 10.776 34.7266 10.3265 34.7262 9.87695C34.7258 9.46461 34.7269 9.05231 34.7289 8.63998C34.7294 8.49157 34.7295 8.34315 34.729 8.19474C34.726 7.25203 34.8279 6.38319 35.0616 5.46787C35.0823 5.38254 35.1031 5.29721 35.1244 5.20929C35.1671 5.0347 35.2117 4.86057 35.2569 4.68662C32.0016 4.68215 28.7463 4.67871 25.491 4.67665C25.1065 4.6764 24.7219 4.67615 24.3374 4.67589C24.2225 4.67582 24.2225 4.67582 24.1054 4.67574C22.8667 4.67489 21.6281 4.67335 20.3894 4.67155C19.1179 4.66972 17.8465 4.66864 16.575 4.66825C15.7907 4.66798 15.0065 4.66713 14.2223 4.66554C13.6204 4.66439 13.0185 4.66427 12.4166 4.66453C12.1701 4.66448 11.9235 4.66409 11.677 4.66334C11.34 4.66236 11.0029 4.6626 10.6658 4.66313C10.5202 4.66228 10.5202 4.66228 10.3716 4.66141C9.19822 4.6664 8.16339 4.85734 7.33946 5.74863ZM38.4281 5.67654C37.8992 6.34575 37.8792 7.12196 37.8826 7.93744C37.8826 8.02799 37.8825 8.11855 37.8825 8.21186C37.8826 8.5104 37.8834 8.80893 37.8841 9.10747C37.8843 9.31478 37.8844 9.52208 37.8845 9.72938C37.8849 10.2744 37.8859 10.8195 37.887 11.3645C37.888 11.9209 37.8884 12.4773 37.8889 13.0338C37.8899 14.1251 37.8916 15.2164 37.8937 16.3077C38.5801 16.3151 39.2665 16.3203 39.953 16.3238C40.1865 16.3253 40.42 16.3273 40.6535 16.3298C40.9892 16.3334 41.3249 16.335 41.6607 16.3363C41.765 16.3378 41.8692 16.3394 41.9767 16.3409C42.6723 16.3506 42.6723 16.3506 43.2648 16.0147C43.4185 15.7073 43.3768 15.3779 43.3766 15.0403C43.3769 14.9597 43.3773 14.8792 43.3776 14.7962C43.3785 14.5288 43.3787 14.2615 43.3788 13.9941C43.3791 13.8082 43.3795 13.6223 43.3798 13.4364C43.3804 13.0458 43.3806 12.6553 43.3805 12.2648C43.3805 11.7659 43.3818 11.267 43.3835 10.7681C43.3846 10.3837 43.3848 9.99919 43.3847 9.61471C43.3849 9.43091 43.3853 9.24711 43.386 9.06331C43.387 8.80507 43.3867 8.54686 43.3861 8.28863C43.3867 8.21356 43.3872 8.1385 43.3878 8.06116C43.3815 6.96491 43.0879 6.16989 42.3065 5.38853C40.9962 4.4893 39.5406 4.49306 38.4281 5.67654Z" fill="black"/>
<path d="M13.4259 21.6662C13.5379 21.6655 13.6498 21.6648 13.7652 21.6641C13.8882 21.6638 14.0112 21.6635 14.1379 21.6633C14.2686 21.6626 14.3994 21.662 14.5301 21.6613C14.9596 21.6593 15.3891 21.6582 15.8185 21.6573C15.9665 21.6569 16.1145 21.6565 16.2624 21.6561C16.9576 21.6542 17.6528 21.6528 18.3481 21.652C19.15 21.6511 19.9519 21.6485 20.7539 21.6445C21.3741 21.6416 21.9943 21.6401 22.6145 21.6398C22.9847 21.6396 23.3549 21.6387 23.7252 21.6363C24.0737 21.634 24.4222 21.6336 24.7707 21.6346C24.959 21.6346 25.1472 21.6328 25.3354 21.6309C25.9919 21.6348 26.4222 21.666 26.9498 22.0712C27.3516 22.5892 27.4918 22.9781 27.4381 23.6337C27.2527 24.2017 26.998 24.5202 26.4615 24.8055C26.1595 24.9062 25.9504 24.9162 25.6337 24.9176C25.5226 24.9183 25.4114 24.919 25.2969 24.9197C25.1748 24.92 25.0527 24.9202 24.927 24.9205C24.7985 24.9211 24.67 24.9218 24.5376 24.9224C24.1113 24.9245 23.685 24.9255 23.2587 24.9265C23.1118 24.9269 22.965 24.9273 22.8181 24.9277C22.128 24.9295 21.4379 24.9309 20.7478 24.9317C19.9518 24.9327 19.1558 24.9353 18.3597 24.9392C17.7441 24.9422 17.1285 24.9436 16.5128 24.9439C16.1453 24.9442 15.7778 24.945 15.4103 24.9475C15.0643 24.9498 14.7184 24.9502 14.3724 24.9492C14.1856 24.9491 13.9988 24.951 13.812 24.9529C13.1559 24.9489 12.7333 24.9125 12.2037 24.5126C11.7554 24.0288 11.6805 23.6405 11.688 22.9993C11.7421 22.5178 12.01 22.2555 12.3563 21.943C12.7198 21.6914 12.9948 21.668 13.4259 21.6662Z" fill="black"/>
<path d="M13.6241 13.268C13.7329 13.2674 13.8418 13.2668 13.9539 13.2663C14.0729 13.2662 14.1918 13.2661 14.3144 13.2659C14.4401 13.2655 14.5657 13.265 14.6951 13.2645C15.0396 13.2632 15.384 13.2626 15.7284 13.2621C15.9438 13.2618 16.1591 13.2614 16.3745 13.261C17.0487 13.2597 17.723 13.2587 18.3972 13.2583C19.1747 13.2579 19.9521 13.2562 20.7296 13.2534C21.3311 13.2513 21.9327 13.2503 22.5342 13.2501C22.8932 13.25 23.2522 13.2495 23.6112 13.2477C24.0119 13.2458 24.4125 13.2462 24.8132 13.2469C24.9316 13.246 25.05 13.2451 25.1719 13.2441C25.9329 13.2479 26.4385 13.3027 27.0352 13.8066C27.4198 14.2682 27.4957 14.6363 27.4441 15.2348C27.2661 15.8085 27.0372 16.0652 26.5652 16.4067C26.3099 16.5343 26.1216 16.5175 25.8357 16.5187C25.6654 16.5198 25.6654 16.5198 25.4917 16.5208C25.304 16.5212 25.304 16.5212 25.1125 16.5216C24.9798 16.5222 24.8472 16.5229 24.7145 16.5236C24.2782 16.5256 23.8418 16.5266 23.4055 16.5276C23.2553 16.528 23.105 16.5284 22.9548 16.5288C22.2488 16.5307 21.5429 16.5321 20.8369 16.5329C20.0223 16.5338 19.2078 16.5364 18.3932 16.5403C17.7634 16.5433 17.1337 16.5447 16.504 16.5451C16.1279 16.5453 15.7519 16.5462 15.3759 16.5486C15.0218 16.5509 14.6678 16.5513 14.3137 16.5503C14.1225 16.5502 13.9312 16.5521 13.74 16.554C13.0794 16.5501 12.6424 16.5229 12.1121 16.1137C11.7486 15.6477 11.6572 15.2802 11.6841 14.6908C11.7656 14.1734 11.9915 13.8654 12.405 13.538C12.8254 13.3103 13.1486 13.2694 13.6241 13.268Z" fill="black"/>
<path d="M13.7254 30.1625C13.8326 30.1619 13.9398 30.1614 14.0502 30.1608C14.1669 30.1607 14.2835 30.1606 14.4037 30.1605C14.5891 30.1597 14.5891 30.1597 14.7782 30.159C15.1166 30.1577 15.455 30.1571 15.7933 30.1567C16.005 30.1564 16.2167 30.156 16.4284 30.1555C17.0914 30.1542 17.7544 30.1533 18.4175 30.1529C19.1814 30.1524 19.9454 30.1507 20.7093 30.1479C21.3009 30.1458 21.8924 30.1448 22.4839 30.1447C22.8367 30.1446 23.1895 30.144 23.5424 30.1422C23.9362 30.1403 24.3301 30.1408 24.724 30.1414C24.84 30.1405 24.9561 30.1396 25.0756 30.1387C25.7735 30.1422 26.4024 30.1701 26.9615 30.637C27.006 30.6944 27.0504 30.7518 27.0962 30.811C27.1424 30.8684 27.1886 30.9258 27.2362 30.9849C27.48 31.3561 27.4729 31.6979 27.4441 32.1293C27.2661 32.703 27.0372 32.9597 26.5652 33.3012C26.3099 33.4288 26.1216 33.412 25.8357 33.4132C25.6654 33.4143 25.6654 33.4143 25.4917 33.4154C25.304 33.4157 25.304 33.4157 25.1125 33.4161C24.9798 33.4168 24.8472 33.4174 24.7145 33.4181C24.2782 33.4202 23.8418 33.4212 23.4055 33.4221C23.2553 33.4225 23.105 33.4229 22.9548 33.4233C22.2488 33.4252 21.5429 33.4266 20.8369 33.4274C20.0223 33.4284 19.2078 33.4309 18.3932 33.4349C17.7634 33.4378 17.1337 33.4393 16.504 33.4396C16.1279 33.4398 15.7519 33.4407 15.3759 33.4431C15.0218 33.4454 14.6678 33.4458 14.3137 33.4448C14.1225 33.4448 13.9312 33.4466 13.74 33.4486C13.0794 33.4447 12.6424 33.4174 12.1121 33.0082C11.7486 32.5422 11.6572 32.1747 11.6841 31.5854C11.7652 31.0704 11.9909 30.7625 12.3989 30.4326C12.84 30.1985 13.2312 30.164 13.7254 30.1625Z" fill="black"/>
</svg>
