<svg width="50" height="51" viewBox="0 0 50 51" fill="none" xmlns="http://www.w3.org/2000/svg">
<path d="M24.9052 0.113281C25.2019 0.24605 25.4066 0.395205 25.6357 0.624966C25.7011 0.690149 25.7666 0.755331 25.834 0.822489C25.9047 0.893926 25.9755 0.965363 26.0484 1.03897C26.1237 1.11424 26.199 1.18952 26.2766 1.26707C26.5254 1.51602 26.7735 1.76565 27.0216 2.01529C27.194 2.18802 27.3664 2.36071 27.5388 2.53336C27.9462 2.94145 28.3532 3.34998 28.76 3.75872C29.2687 4.26978 29.778 4.78018 30.2873 5.29059C31.1957 6.201 32.1034 7.112 33.0107 8.02344C32.9173 8.13301 32.8238 8.24251 32.7303 8.35198C32.6782 8.41297 32.6262 8.47395 32.5725 8.53679C32.4045 8.73037 32.2291 8.91376 32.0471 9.09422C31.9829 9.15811 31.9187 9.222 31.8525 9.28782C31.7876 9.35196 31.7226 9.4161 31.6557 9.48218C31.5885 9.54896 31.5212 9.61574 31.452 9.68455C31.2882 9.84722 31.1241 10.0097 30.9599 10.1719C30.6275 10.0282 30.4118 9.84283 30.1574 9.58684C30.0772 9.5067 29.9971 9.42655 29.9145 9.34398C29.7862 9.21412 29.7862 9.21412 29.6553 9.08163C29.5228 8.94874 29.5228 8.94874 29.3876 8.81317C29.1534 8.57824 28.9198 8.34273 28.6864 8.10709C28.4478 7.8665 28.2086 7.62647 27.9695 7.38638C27.501 6.91565 27.0329 6.44437 26.5653 5.97266C26.5608 7.50076 26.5573 9.02886 26.5552 10.557C26.5542 11.2666 26.5529 11.9763 26.5506 12.686C26.5487 13.3052 26.5474 13.9244 26.547 14.5436C26.5467 14.8709 26.546 15.1981 26.5447 15.5254C26.5343 18.2012 26.6407 20.4142 28.6222 22.4338C30.4418 24.2196 32.7838 25.4067 35.0131 26.5913C37.7465 28.0502 40.4199 29.5055 42.6786 31.6562C42.7571 31.7284 42.8355 31.8005 42.9163 31.8748C44.3623 33.2457 45.3505 35.1472 45.6083 37.125C45.6148 37.3824 45.6177 37.6369 45.6144 37.894C45.614 37.9613 45.6135 38.0285 45.6131 38.0977C45.6119 38.2618 45.6102 38.4258 45.6083 38.5898C45.7084 38.5999 45.8085 38.61 45.9116 38.6204C47.2013 38.848 48.3066 39.8584 49.0656 40.8829C50.0057 42.3654 50.2354 43.9964 49.9357 45.7126C49.8469 46.0205 49.7422 46.305 49.6122 46.5977C49.5731 46.688 49.5339 46.7784 49.4936 46.8716C48.7871 48.3173 47.5129 49.39 45.9989 49.918C44.4037 50.3972 42.7193 50.1956 41.2443 49.4602C39.8116 48.6302 38.7743 47.2828 38.3394 45.6875C38.012 44.1383 38.214 42.4909 39.0482 41.1316C39.8816 39.9413 40.9014 39.0719 42.288 38.5898C42.3847 38.5898 42.4814 38.5898 42.581 38.5898C42.3959 36.2828 41.4895 34.6554 39.723 33.1386C38.0087 31.7721 36.091 30.7629 34.1649 29.7317C33.0866 29.1536 32.0203 28.5556 30.9599 27.9453C30.8898 27.9052 30.8198 27.8651 30.7476 27.8238C30.028 27.4102 29.3338 26.9673 28.6528 26.4927C28.5898 26.4492 28.5269 26.4057 28.4621 26.3609C27.7911 25.8845 27.2008 25.358 26.5653 24.8203C26.5653 29.332 26.5653 33.8438 26.5653 38.4922C26.9521 38.6533 27.3388 38.8145 27.7372 38.9805C29.2147 39.752 30.1397 40.9518 30.7157 42.4961C31.1475 44.0688 30.9274 45.7125 30.2091 47.1531C29.372 48.5981 28.0776 49.5443 26.4936 50.0297C24.9063 50.4009 23.2374 50.117 21.8416 49.3084C20.5069 48.4159 19.5483 47.1186 19.1803 45.545C18.8984 43.8854 19.1823 42.2383 20.12 40.8359C21.0118 39.69 22.0599 38.9523 23.4403 38.4922C23.4403 33.9805 23.4403 29.4688 23.4403 24.8203C22.9892 25.207 22.538 25.5938 22.0732 25.9922C21.7033 26.2606 21.338 26.5183 20.9562 26.7673C20.8561 26.8332 20.756 26.8991 20.6529 26.967C19.1309 27.9569 17.5291 28.8028 15.9284 29.6563C10.9239 32.1988 10.9239 32.1988 7.7238 36.6028C7.52797 37.259 7.45926 37.9075 7.42472 38.5898C7.50882 38.5999 7.59291 38.61 7.67955 38.6204C8.95841 38.8797 10.0384 39.8814 10.7912 40.9035C11.7041 42.2833 11.9743 43.8522 11.7002 45.4765C11.3359 47.0995 10.3582 48.494 8.95175 49.3923C7.49099 50.1584 5.68575 50.4202 4.0861 49.9546C2.42206 49.3327 1.17238 48.2443 0.405681 46.6282C-0.186806 45.2961 -0.239169 43.5501 0.271022 42.1848C1.00684 40.5344 2.08024 39.4451 3.7218 38.694C4.00676 38.5898 4.00676 38.5898 4.39738 38.5898C4.39285 38.5034 4.38832 38.4169 4.38365 38.3278C4.31587 36.0016 5.2022 33.8966 6.79377 32.1991C6.87308 32.1166 6.95239 32.0342 7.0341 31.9492C7.12146 31.8557 7.20883 31.7622 7.29884 31.6658C9.45978 29.3918 12.4552 27.9658 15.1901 26.5127C17.4292 25.3221 19.68 24.0885 21.4872 22.2812C21.5602 22.2082 21.6333 22.1352 21.7085 22.06C23.1771 20.5017 23.4582 18.7289 23.4514 16.6711C23.4515 16.4966 23.4515 16.4966 23.4515 16.3185C23.4514 16.003 23.4509 15.6875 23.4503 15.372C23.4496 15.041 23.4496 14.7099 23.4495 14.3789C23.4492 13.7536 23.4484 13.1283 23.4474 12.503C23.4462 11.7205 23.4456 10.9379 23.4451 10.1553C23.4442 8.76107 23.4422 7.36687 23.4403 5.97266C22.0546 7.3584 20.6689 8.74414 19.2411 10.1719C18.8734 9.98801 18.6897 9.83868 18.4065 9.55161C18.324 9.46852 18.2416 9.38544 18.1566 9.29984C18.0714 9.21297 17.9862 9.12611 17.8984 9.03662C17.8116 8.94901 17.7249 8.86139 17.6355 8.77112C17.4216 8.55488 17.2081 8.33819 16.995 8.12109C17.4153 7.6189 17.8557 7.14921 18.3198 6.68755C18.3914 6.61602 18.4629 6.54448 18.5366 6.47078C18.7709 6.23647 19.0056 6.00252 19.2404 5.76857C19.4038 5.60536 19.5671 5.44212 19.7305 5.27887C20.1589 4.85081 20.5876 4.42304 21.0164 3.99533C21.4546 3.55821 21.8924 3.12081 22.3303 2.68343C23.1883 1.82644 24.0467 0.969764 24.9052 0.113281ZM3.66496 42.3313C3.53376 42.5052 3.53376 42.5052 3.42082 42.6914C3.38079 42.7543 3.34076 42.8173 3.29951 42.8821C2.95018 43.5326 2.92692 44.2162 3.03019 44.9375C3.27268 45.6735 3.63587 46.2811 4.29972 46.6953C4.36267 46.7353 4.42561 46.7754 4.49046 46.8166C5.19834 47.1968 6.03003 47.216 6.8014 47.0215C7.49915 46.7426 8.18369 46.2111 8.52298 45.5295C8.84467 44.6495 8.8482 43.8557 8.49894 42.9844C8.13615 42.3172 7.56121 41.7887 6.85481 41.5066C5.69159 41.1878 4.50235 41.4353 3.66496 42.3313ZM22.7568 42.3984C22.2035 43.2354 22.0944 43.9372 22.1708 44.9375C22.3474 45.6566 22.8264 46.3314 23.4526 46.7296C24.2368 47.1304 25.0827 47.2402 25.9477 47.0192C26.823 46.6549 27.3443 46.0828 27.7372 45.2305C27.9575 44.5696 27.9449 43.7336 27.6762 43.0881C27.2232 42.2373 26.6032 41.7275 25.6864 41.4219C24.5151 41.33 23.5593 41.488 22.7568 42.3984ZM41.7997 42.4961C41.358 43.1148 41.1642 43.901 41.247 44.6533C41.4508 45.6095 41.8932 46.1941 42.6664 46.7708C43.3881 47.1874 44.2888 47.2248 45.0872 47.0188C45.3092 46.9273 45.5035 46.8241 45.706 46.6953C45.7669 46.6573 45.8278 46.6193 45.8906 46.5801C46.5364 46.1056 46.9015 45.3785 47.0323 44.5988C47.0763 43.6748 46.8299 42.9185 46.2294 42.2092C46.0632 42.0539 45.8988 41.9328 45.706 41.8125C45.643 41.7725 45.5801 41.7324 45.5152 41.6912C44.201 40.9854 42.7498 41.4448 41.7997 42.4961Z" fill="black"/>
</svg>
