<svg width="51" height="51" viewBox="0 0 51 51" fill="none" xmlns="http://www.w3.org/2000/svg">
<path d="M50.5389 25.0397C50.5388 25.1385 50.5388 25.2373 50.5387 25.3392C50.5348 26.9533 50.4465 28.5093 50.1116 30.0934C50.0902 30.1951 50.0688 30.2969 50.0467 30.4017C49.0606 34.9225 46.8771 39.0645 43.6663 42.3981C43.5737 42.4947 43.5737 42.4947 43.4793 42.5932C42.5863 43.5198 41.6783 44.3733 40.639 45.1325C40.5266 45.2163 40.4142 45.3 40.3018 45.3838C39.5019 45.9735 38.6704 46.4968 37.807 46.9879C37.7453 47.0235 37.6836 47.0591 37.62 47.0958C35.0726 48.5538 32.2078 49.4795 29.3109 49.9176C29.2013 49.9349 29.0916 49.9521 28.9787 49.9699C27.8446 50.1317 26.7199 50.1519 25.5755 50.1495C25.4273 50.1495 25.4273 50.1495 25.276 50.1494C23.6619 50.1454 22.1059 50.0572 20.5218 49.7223C20.4201 49.7009 20.3183 49.6794 20.2135 49.6573C15.6927 48.6712 11.5507 46.4877 8.21712 43.277C8.15272 43.2153 8.08834 43.1535 8.02199 43.0899C7.09541 42.1969 6.2419 41.289 5.48274 40.2496C5.39895 40.1372 5.31515 40.0248 5.23135 39.9124C4.64175 39.1127 4.11608 38.2823 3.62727 37.4176C3.588 37.3485 3.54872 37.2795 3.50825 37.2083C2.06759 34.6495 1.13642 31.8232 0.697585 28.9215C0.680339 28.8119 0.663092 28.7023 0.645323 28.5893C0.483515 27.4553 0.463332 26.3305 0.465651 25.1862C0.465731 25.0379 0.465731 25.0379 0.465812 24.8867C0.46979 23.2726 0.558009 21.7165 0.892898 20.1325C0.914344 20.0307 0.935794 19.929 0.957893 19.8241C1.83661 15.7956 3.66479 12.0283 6.36165 8.90198C6.42358 8.82922 6.48552 8.75646 6.54933 8.68149C7.70276 7.36265 8.94794 6.1252 10.3656 5.09339C10.4779 5.00975 10.5901 4.92608 10.7024 4.84238C11.5022 4.25253 12.3327 3.72682 13.1976 3.23792C13.2667 3.19864 13.3357 3.15937 13.4069 3.1189C15.6662 1.84689 18.1243 0.992507 20.6622 0.473026C20.7324 0.458635 20.8026 0.444245 20.8749 0.429419C22.4029 0.139003 23.914 0.0764923 25.4657 0.0824009C25.5651 0.0826114 25.6645 0.0828218 25.7669 0.0830387C27.1935 0.0878894 28.5932 0.112391 29.9945 0.405887C30.0897 0.425289 30.1849 0.444692 30.2829 0.464682C35.0077 1.45302 39.3035 3.59331 42.7874 6.94886C42.8518 7.01059 42.9162 7.07232 42.9826 7.13592C43.9091 8.02893 44.7626 8.93688 45.5218 9.9762C45.6056 10.0886 45.6894 10.201 45.7732 10.3134C46.3628 11.1132 46.8885 11.9435 47.3773 12.8082C47.4166 12.8773 47.4558 12.9464 47.4963 13.0175C48.937 15.5764 49.8681 18.4026 50.307 21.3043C50.3242 21.4139 50.3415 21.5236 50.3592 21.6365C50.521 22.7706 50.5412 23.8953 50.5389 25.0397ZM39.2291 9.86023C37.6555 8.47016 35.9046 7.33897 33.9984 6.46058C33.8876 6.40871 33.7768 6.35685 33.6627 6.30341C31.2656 5.22694 28.7017 4.73614 26.0882 4.60511C25.9727 4.59919 25.8571 4.59327 25.738 4.58718C25.4295 4.58029 25.1269 4.58887 24.8187 4.60511C24.742 4.60912 24.6652 4.61313 24.5862 4.61727C20.3582 4.85964 16.4892 6.28703 13.0999 8.80433C13.0032 8.86878 12.9066 8.93323 12.807 8.99964C12.9602 9.36795 13.1892 9.60164 13.4696 9.88214C13.5418 9.95479 13.5418 9.95479 13.6155 10.0289C13.7776 10.1918 13.9405 10.3539 14.1033 10.5161C14.2206 10.6336 14.3378 10.7512 14.455 10.8688C14.7778 11.1923 15.1012 11.5153 15.4246 11.8381C15.7731 12.1862 16.1211 12.5348 16.4691 12.8834C17.1511 13.5663 17.8337 14.2486 18.5164 14.9308C19.071 15.485 19.6254 16.0393 20.1797 16.5938C20.2585 16.6726 20.3373 16.7515 20.4184 16.8327C20.5785 16.9928 20.7385 17.1529 20.8986 17.313C22.4002 18.8151 23.9024 20.3167 25.4048 21.8181C26.6953 23.1077 27.9852 24.3978 29.2748 25.6882C30.7709 27.1854 32.2674 28.6824 33.7644 30.1788C33.9239 30.3381 34.0834 30.4975 34.2428 30.6569C34.3213 30.7354 34.3997 30.8138 34.4806 30.8946C35.0348 31.4487 35.5888 32.0029 36.1427 32.5573C36.8171 33.2322 37.4919 33.9069 38.1671 34.581C38.5119 34.9253 38.8565 35.2698 39.2007 35.6146C39.5154 35.9298 39.8304 36.2446 40.1458 36.559C40.2604 36.6733 40.3747 36.7877 40.4889 36.9024C40.6431 37.0572 40.7979 37.2114 40.9529 37.3655C41.0391 37.4516 41.1252 37.5377 41.214 37.6265C41.3988 37.8298 41.3988 37.8298 41.6156 37.8082C41.7736 37.6143 41.9183 37.4211 42.0611 37.2162C42.1044 37.1546 42.1477 37.093 42.1923 37.0296C47.0687 30.0934 48.1152 19.3863 39.2291 9.86023ZM37.7513 40.56C37.6789 40.4872 37.6789 40.4872 37.6051 40.4129C37.4414 40.2485 37.277 40.0848 37.1126 39.9211C36.9947 39.803 36.8768 39.6848 36.759 39.5666C36.4336 39.2403 36.1075 38.9147 35.7814 38.5892C35.4304 38.2386 35.0799 37.8874 34.7293 37.5363C34.0419 36.848 33.354 36.1603 32.6659 35.4728C32.1069 34.9142 31.5481 34.3555 30.9894 33.7966C30.8704 33.6775 30.8704 33.6775 30.749 33.556C30.5878 33.3948 30.4266 33.2336 30.2654 33.0723C28.7522 31.5585 27.2383 30.0453 25.7243 28.5323C24.4237 27.2326 23.1236 25.9324 21.824 24.6318C20.3165 23.1233 18.8088 21.6152 17.3006 20.1076C17.1399 19.947 16.9793 19.7864 16.8186 19.6258C16.7395 19.5467 16.6605 19.4677 16.579 19.3863C16.0205 18.8279 15.4622 18.2694 14.904 17.7107C14.2242 17.0304 13.5441 16.3504 12.8635 15.6709C12.516 15.3238 12.1685 14.9766 11.8216 14.6289C11.5044 14.3112 11.1868 13.9939 10.8688 13.677C10.7534 13.5618 10.6381 13.4464 10.523 13.3308C10.3675 13.1747 10.2115 13.0193 10.0552 12.8639C9.96836 12.7771 9.88151 12.6903 9.79203 12.6009C9.60606 12.3961 9.60606 12.3961 9.38899 12.4176C9.2309 12.6116 9.08627 12.8048 8.94344 13.0096C8.90015 13.0712 8.85686 13.1328 8.81226 13.1962C5.68119 17.7073 4.36988 23.1811 5.28056 28.6152C5.64878 30.6115 6.24377 32.6286 7.23836 34.4067C7.34411 34.5961 7.44614 34.7873 7.54802 34.9789C8.70401 37.1239 10.312 39.2114 12.221 40.7379C12.3153 40.8163 12.4096 40.8948 12.5067 40.9756C13.8818 42.1031 15.3927 43.0217 17.0062 43.7653C17.117 43.8171 17.2277 43.869 17.3419 43.9224C19.7389 44.9989 22.303 45.4899 24.9163 45.6207C25.033 45.6267 25.1497 45.6326 25.27 45.6387C29.6915 45.7364 34.0963 44.2266 37.6353 41.6199C37.8195 41.4842 38.0072 41.3531 38.1976 41.2262C38.1976 40.9079 37.971 40.7798 37.7513 40.56Z" fill="black"/>
</svg>
