<svg width="51" height="51" viewBox="0 0 51 51" fill="none" xmlns="http://www.w3.org/2000/svg">
<g clip-path="url(#clip0_8973_776217)">
<path d="M23.7879 0.171875C18.2215 0.757812 13.7976 2.80859 10.0574 6.54883C6.66872 9.9375 4.58864 14.0781 3.84645 18.8633C3.61208 20.3965 3.61208 23.6875 3.85622 25.0645C4.72536 30.1426 7.21559 34.8301 11.5515 39.5762C14.657 42.9746 19.0613 46.5195 23.4461 49.1562C24.8718 50.0156 24.989 50.0645 25.4968 50.0645C26.0047 50.0645 26.1414 50.0059 27.2254 49.3516C31.7957 46.627 36.1218 43.1699 39.3054 39.7129C46.2976 32.1152 48.7195 24.4395 46.6297 16.4219C44.4422 8.01367 37.3718 1.67578 28.7195 0.357422C27.7332 0.210938 24.5886 0.09375 23.7879 0.171875ZM27.3523 3.33594C33.0261 3.93164 38.075 6.98828 41.1804 11.7441C44.0222 16.0801 44.9304 21.4121 43.6707 26.3047C42.1668 32.1152 37.4597 38.1602 30.2429 43.541C29.0027 44.4688 26.6101 46.0996 25.8191 46.5586C25.4383 46.7734 25.5554 46.832 23.4949 45.4746C20.2625 43.3457 17.6941 41.2559 15.0867 38.6484C11.8152 35.3672 9.69606 32.3984 8.29958 29.1465C6.14138 24.1172 6.25856 18.6875 8.64138 13.8242C10.5554 9.91797 13.4265 7.04688 17.3425 5.14258C20.4675 3.61914 23.9636 2.98438 27.3523 3.33594Z" fill="black"/>
<path d="M20.1778 15.875C19.8165 16.041 19.4942 16.3828 19.3575 16.7441C19.2891 16.9297 19.2501 18.9414 19.2501 22.7793C19.2501 29.166 19.2305 28.9707 19.8946 29.4687C20.1973 29.7031 20.3536 29.752 20.8223 29.752C21.4278 29.752 21.7403 29.5859 22.1212 29.0781C22.3262 28.8145 22.3262 28.7168 22.3262 22.7695C22.3262 16.8223 22.3262 16.7246 22.1212 16.4609C22.0137 16.3145 21.8087 16.0996 21.6719 16.002C21.3399 15.7578 20.5684 15.6895 20.1778 15.875Z" fill="black"/>
<path d="M24.8653 15.875C24.504 16.0312 24.1817 16.3828 24.045 16.7441C23.9766 16.9297 23.9376 18.9414 23.9376 22.7793C23.9376 29.166 23.918 28.9707 24.5821 29.4688C24.8848 29.7031 25.0411 29.752 25.5098 29.752C26.1153 29.752 26.4278 29.5859 26.8087 29.0781C26.9942 28.834 27.0137 28.6484 27.043 26.959L27.0723 25.1133H28.127C28.752 25.1133 29.3965 25.0547 29.7481 24.9668C32.2481 24.3125 33.8008 21.7539 33.1661 19.3223C32.7266 17.6328 31.4278 16.3242 29.7481 15.8848C28.9766 15.6895 25.3047 15.6797 24.8653 15.875ZM29.4649 19.1172C29.9825 19.498 30.1387 19.8105 30.1387 20.4258C30.1387 21.041 29.9825 21.3535 29.4649 21.7344C29.2403 21.9102 29.0255 21.9492 28.127 21.9688L27.0626 22.0078V20.4258V18.8438L28.127 18.8828C29.0255 18.9023 29.2403 18.9414 29.4649 19.1172Z" fill="black"/>
</g>
<defs>
<clipPath id="clip0_8973_776217">
<rect width="50" height="50" fill="white" transform="translate(0.5 0.113281)"/>
</clipPath>
</defs>
</svg>
