<svg width="51" height="50" viewBox="0 0 51 50" fill="none" xmlns="http://www.w3.org/2000/svg">
<path d="M25.5 30.9993C24.5887 30.9982 23.715 30.6357 23.0705 29.9913C22.4261 29.3469 22.0636 28.4732 22.0625 27.5618V22.416C22.0625 21.5043 22.4247 20.63 23.0693 19.9853C23.714 19.3407 24.5883 18.9785 25.5 18.9785C26.4117 18.9785 27.286 19.3407 27.9307 19.9853C28.5753 20.63 28.9375 21.5043 28.9375 22.416V27.5618C28.9364 28.4732 28.5739 29.3469 27.9295 29.9913C27.285 30.6357 26.4113 30.9982 25.5 30.9993V30.9993Z" stroke="black" stroke-width="3.5" stroke-linecap="round"/>
<path d="M35.8776 28.0616C35.6398 30.7254 34.3866 33.1957 32.3775 34.9609C30.3684 36.7261 27.7573 37.6509 25.085 37.5438C22.4128 37.4367 19.8841 36.3059 18.0227 34.3856C16.1613 32.4653 15.1098 29.9026 15.0859 27.2283V22.77C15.1049 20.1123 16.139 17.5625 17.9765 15.6424C19.814 13.7223 22.316 12.5771 24.9702 12.4413C27.6244 12.3056 30.2301 13.1895 32.254 14.912C34.2778 16.6346 35.5667 19.0657 35.8568 21.7075" stroke="black" stroke-width="3.5" stroke-linecap="round"/>
<path d="M31.75 4.16631H35.9167C37.3065 4.08244 38.6983 4.29441 40.0001 4.78823C41.3019 5.28204 42.4841 6.04647 43.4687 7.031C44.4532 8.01552 45.2176 9.19775 45.7114 10.4996C46.2052 11.8014 46.4172 13.1932 46.3333 14.583V18.7496" stroke="black" stroke-width="3.5" stroke-linecap="round" stroke-linejoin="round"/>
<path d="M4.66631 18.7496V14.583C4.58244 13.1932 4.79441 11.8014 5.28823 10.4996C5.78204 9.19775 6.54647 8.01552 7.531 7.031C8.51552 6.04647 9.69775 5.28204 10.9996 4.78823C12.3014 4.29441 13.6932 4.08244 15.083 4.16631H19.2496" stroke="black" stroke-width="3.5" stroke-linecap="round" stroke-linejoin="round"/>
<path d="M31.75 45.8333H35.9167C37.3065 45.9172 38.6983 45.7052 40.0001 45.2114C41.3019 44.7176 42.4841 43.9532 43.4687 42.9687C44.4532 41.9841 45.2176 40.8019 45.7114 39.5001C46.2052 38.1983 46.4172 36.8065 46.3333 35.4167V31.25" stroke="black" stroke-width="3.5" stroke-linecap="round" stroke-linejoin="round"/>
<path d="M4.66631 31.25V35.4167C4.58244 36.8065 4.79441 38.1983 5.28823 39.5001C5.78204 40.8019 6.54647 41.9841 7.531 42.9687C8.51552 43.9532 9.69775 44.7176 10.9996 45.2114C12.3014 45.7052 13.6932 45.9172 15.083 45.8333H19.2496" stroke="black" stroke-width="3.5" stroke-linecap="round" stroke-linejoin="round"/>
</svg>
