<svg width="50" height="50" viewBox="0 0 50 50" fill="none" xmlns="http://www.w3.org/2000/svg">
<path d="M24.9902 -0.0544653C25.0685 -0.0571167 25.1468 -0.0597682 25.2275 -0.0625C26.4269 -0.0546895 27.4569 0.574296 28.4509 1.18455C28.5643 1.25309 28.6777 1.32152 28.7913 1.38985C29.032 1.53483 29.2724 1.68028 29.5126 1.82604C30.0798 2.16959 30.6508 2.50677 31.2214 2.84465C31.5517 3.04034 31.8817 3.23647 32.2118 3.43255C32.3451 3.51172 32.4784 3.59089 32.6117 3.67006C32.6776 3.7092 32.7435 3.74834 32.8114 3.78866C33.3335 4.09873 33.8557 4.40875 34.3779 4.71878C34.7032 4.91196 35.0286 5.10514 35.354 5.29832C35.4842 5.37563 35.6144 5.45294 35.7446 5.53025C36.5258 5.99412 36.5258 5.99412 36.7211 6.11008C36.8514 6.1874 36.9816 6.26473 37.1118 6.34205C37.4371 6.53515 37.7623 6.72827 38.0875 6.92142C38.6768 7.27147 39.2663 7.62136 39.8562 7.97056C40.1865 8.16614 40.5168 8.36184 40.8471 8.5576C40.9118 8.59595 40.9766 8.63431 41.0433 8.67383C42.0302 9.25901 43.0116 9.85279 43.991 10.4506C44.8 10.944 45.6159 11.4224 46.4404 11.8894C47.0396 12.2291 47.6345 12.5752 48.2263 12.9277C48.305 12.9742 48.3838 13.0207 48.4649 13.0686C49.8106 13.8746 49.8106 13.8746 50.0024 14.2583C50.0133 14.4332 50.0179 14.6085 50.0197 14.7837C50.0209 14.8935 50.0222 15.0034 50.0235 15.1166C50.0246 15.2954 50.0246 15.2954 50.0257 15.4778C50.0265 15.6 50.0272 15.7221 50.028 15.8479C50.0294 16.1067 50.0305 16.3656 50.0312 16.6244C50.0323 16.9554 50.0357 17.2864 50.0395 17.6174C50.0427 17.9337 50.0431 18.2499 50.044 18.5662C50.0457 18.6848 50.0474 18.8035 50.0492 18.9257C50.0489 19.0365 50.0486 19.1472 50.0483 19.2614C50.0489 19.3586 50.0494 19.4558 50.05 19.556C49.9884 19.9038 49.8573 20.0626 49.6118 20.313C48.3875 20.9251 46.8789 20.5083 45.5102 20.5083C45.5424 27.2114 45.5747 33.9145 45.6079 40.8208C46.0268 40.8852 46.4458 40.9497 46.8774 41.0161C48.0524 41.4112 48.91 42.2264 49.5656 43.2557C49.9449 44.0455 50.0466 44.7875 50.0413 45.6567C50.0416 45.7603 50.0419 45.864 50.0422 45.9708C50.0423 46.1882 50.0418 46.4056 50.0406 46.623C50.039 46.9556 50.0406 47.2881 50.0424 47.6207C50.0423 47.8327 50.0419 48.0447 50.0413 48.2568C50.0419 48.3559 50.0425 48.4549 50.0431 48.557C50.0343 49.4386 50.0343 49.4386 49.7094 49.8052C49.3414 50.0608 48.943 50.0277 48.5126 50.0253C48.389 50.0258 48.389 50.0258 48.2628 50.0263C47.9848 50.0271 47.7068 50.0265 47.4288 50.0259C47.2282 50.0262 47.0276 50.0266 46.827 50.0271C46.2744 50.0281 45.7217 50.0278 45.1691 50.0274C44.5736 50.0272 43.9781 50.0281 43.3827 50.0288C42.2155 50.03 41.0484 50.0302 39.8813 50.03C38.933 50.0298 37.9847 50.03 37.0364 50.0304C36.9003 50.0305 36.7641 50.0305 36.628 50.0306C36.4229 50.0307 36.2177 50.0308 36.0126 50.0308C34.1048 50.0317 32.197 50.0321 30.2892 50.0317C30.2173 50.0317 30.1453 50.0317 30.0712 50.0316C29.7065 50.0316 29.3418 50.0315 28.9771 50.0314C28.9047 50.0314 28.8323 50.0314 28.7576 50.0313C28.6111 50.0313 28.4647 50.0313 28.3182 50.0312C26.0386 50.0307 23.7591 50.0315 21.4795 50.0333C18.9197 50.0353 16.3598 50.0364 13.7999 50.036C13.5271 50.0359 13.2542 50.0359 12.9814 50.0359C12.8807 50.0359 12.8807 50.0359 12.7779 50.0358C11.7627 50.0357 10.7475 50.0364 9.73227 50.0374C8.57807 50.0386 7.42387 50.0387 6.26967 50.0375C5.68041 50.037 5.09117 50.0369 4.50192 50.038C3.96298 50.0391 3.42406 50.0388 2.88512 50.0374C2.68968 50.0371 2.49424 50.0374 2.2988 50.0382C2.03401 50.0391 1.76928 50.0383 1.50449 50.0371C1.42786 50.0378 1.35123 50.0385 1.27228 50.0392C0.831771 50.0348 0.548481 49.9794 0.197704 49.7075C0.00355584 49.424 -0.0228473 49.1911 -0.0259806 48.8519C-0.0272267 48.7599 -0.0284727 48.6679 -0.0297565 48.5731C-0.0299739 48.4741 -0.0301912 48.3751 -0.0304152 48.2732C-0.0310653 48.1703 -0.0317153 48.0674 -0.0323851 47.9614C-0.033374 47.7434 -0.0338321 47.5254 -0.0338007 47.3073C-0.0342248 46.977 -0.0377636 46.6469 -0.0414778 46.3166C-0.0502761 44.6553 0.0933708 43.4232 1.28184 42.1662C2.19029 41.3075 3.16701 40.9574 4.39692 40.8208C4.42915 34.1177 4.46138 27.4145 4.49458 20.5083C3.26997 20.5083 2.04536 20.5083 0.783641 20.5083C0.197704 20.1177 0.197704 20.1177 0.00239122 19.8247C-0.0237246 19.5814 -0.0237246 19.5814 -0.0259806 19.2882C-0.0272267 19.1784 -0.0284727 19.0685 -0.0297565 18.9553C-0.0299739 18.8366 -0.0301912 18.7179 -0.0304152 18.5956C-0.0310653 18.4736 -0.0317153 18.3516 -0.0323851 18.226C-0.0333748 17.9677 -0.0339165 17.7094 -0.0338007 17.4512C-0.0337809 17.1209 -0.0364467 16.7907 -0.0398118 16.4605C-0.0425116 16.1448 -0.0423909 15.8291 -0.0426222 15.5133C-0.0440256 15.395 -0.0454291 15.2767 -0.046875 15.1548C-0.0462741 15.0443 -0.0456732 14.9338 -0.0450541 14.82C-0.0453324 14.7231 -0.0456107 14.6262 -0.0458975 14.5263C0.0345837 14.0796 0.290739 13.8411 0.653942 13.5885C0.753139 13.5321 0.852336 13.4757 0.95454 13.4175C1.00938 13.3859 1.06423 13.3543 1.12073 13.3217C1.23902 13.2536 1.35756 13.1859 1.47633 13.1187C1.79754 12.9367 2.11689 12.7515 2.43655 12.5668C2.50234 12.529 2.56814 12.4911 2.63592 12.452C3.24373 12.1012 3.84332 11.7377 4.44165 11.3711C5.48479 10.7318 6.53734 10.1112 7.59881 9.50273C8.29376 9.10409 8.98339 8.69792 9.66931 8.28399C10.4244 7.82843 11.1824 7.37792 11.9409 6.92796C12.0753 6.84815 12.2098 6.76835 12.3442 6.68854C12.9553 6.32589 13.5664 5.96346 14.1779 5.6015C14.5065 5.40695 14.835 5.21228 15.1635 5.01756C15.2281 4.97926 15.2928 4.94097 15.3593 4.90151C16.3462 4.31636 17.3276 3.72264 18.3069 3.12486C19.1275 2.62437 19.9545 2.13758 20.7918 1.66561C21.2315 1.41752 21.6653 1.16287 22.0942 0.896515C23.062 0.299242 23.8456 -0.0295753 24.9902 -0.0544653ZM22.461 3.43789C22.3319 3.51571 22.2027 3.59351 22.0735 3.67128C22.0084 3.7105 21.9432 3.74973 21.8761 3.79014C21.5731 3.97218 21.2693 4.15279 20.9653 4.3332C20.9056 4.3686 20.846 4.40401 20.7845 4.44049C20.6613 4.51361 20.5381 4.58672 20.4148 4.65981C20.2155 4.77805 20.0163 4.89634 19.817 5.01465C19.196 5.38326 18.575 5.75166 17.9536 6.11951C17.6257 6.31362 17.2979 6.50785 16.9702 6.70213C16.8733 6.75953 16.8733 6.75953 16.7745 6.81809C15.7872 7.40346 14.8055 7.99745 13.8258 8.59541C13.0267 9.08277 12.2209 9.55549 11.4061 10.0161C10.6592 10.4394 9.92341 10.8801 9.18823 11.3233C8.54567 11.7107 7.90211 12.0961 7.25605 12.4775C6.92507 12.673 6.59505 12.8699 6.26677 13.0699C5.67896 13.4264 5.09486 13.7714 4.47303 14.0659C4.21298 14.19 3.9572 14.3217 3.7014 14.4543C3.52442 14.542 3.34193 14.6182 3.15951 14.6939C2.76437 14.8769 2.76437 14.8769 2.34614 15.4302C2.34614 16.3325 2.34614 17.2348 2.34614 18.1645C17.2993 18.1645 32.2524 18.1645 47.6586 18.1645C47.9581 15.6472 47.9581 15.6472 47.1601 14.8583C46.928 14.7356 46.7089 14.633 46.4685 14.5329C46.3438 14.471 46.2196 14.4079 46.096 14.3438C45.8381 14.2113 45.5784 14.0844 45.316 13.9611C44.7451 13.6885 44.208 13.3598 43.6667 13.0336C43.3719 12.857 43.0747 12.6848 42.7777 12.5119C42.1392 12.1389 41.5049 11.7591 40.8715 11.3774C39.9964 10.8501 39.117 10.3304 38.2348 9.81492C37.2593 9.2448 36.2877 8.6687 35.3196 8.086C34.5007 7.59328 33.6796 7.10432 32.8576 6.61668C32.7923 6.57793 32.727 6.53918 32.6597 6.49926C32.3932 6.34119 32.1268 6.18313 31.8603 6.02511C31.317 5.70292 30.7739 5.38041 30.2309 5.05779C29.7097 4.74817 29.1884 4.43883 28.6671 4.12956C28.268 3.89273 27.8693 3.65517 27.4709 3.41729C27.2767 3.3017 27.0825 3.18612 26.8884 3.07053C26.7588 2.99286 26.7588 2.99286 26.6266 2.91361C26.5475 2.86657 26.4683 2.81954 26.3867 2.77108C26.3192 2.73073 26.2516 2.69037 26.182 2.6488C24.786 1.89761 23.6752 2.70321 22.461 3.43789ZM6.83833 20.5083C6.83833 27.2114 6.83833 33.9145 6.83833 40.8208C8.32075 40.8208 9.80317 40.8208 11.3305 40.8208C11.3305 34.1177 11.3305 27.4145 11.3305 20.5083C9.84809 20.5083 8.36567 20.5083 6.83833 20.5083ZM13.6743 20.5083C13.6743 27.2114 13.6743 33.9145 13.6743 40.8208C15.8979 40.8208 18.1215 40.8208 20.4125 40.8208C20.4125 34.1177 20.4125 27.4145 20.4125 20.5083C18.1889 20.5083 15.9653 20.5083 13.6743 20.5083ZM22.7563 20.5083C22.7563 27.2114 22.7563 33.9145 22.7563 40.8208C24.2387 40.8208 25.7211 40.8208 27.2485 40.8208C27.2485 34.1177 27.2485 27.4145 27.2485 20.5083C25.7661 20.5083 24.2836 20.5083 22.7563 20.5083ZM29.5922 20.5083C29.5922 27.2114 29.5922 33.9145 29.5922 40.8208C31.8159 40.8208 34.0395 40.8208 36.3305 40.8208C36.3305 34.1177 36.3305 27.4145 36.3305 20.5083C34.1069 20.5083 31.8833 20.5083 29.5922 20.5083ZM38.6743 20.5083C38.6743 27.2114 38.6743 33.9145 38.6743 40.8208C40.1567 40.8208 41.6391 40.8208 43.1665 40.8208C43.1665 34.1177 43.1665 27.4145 43.1665 20.5083C41.684 20.5083 40.2016 20.5083 38.6743 20.5083ZM2.84663 44.0373C2.7925 44.1007 2.73837 44.164 2.6826 44.2292C1.96499 45.2707 2.34614 46.2952 2.34614 47.6567C17.2993 47.6567 32.2524 47.6567 47.6586 47.6567C47.8667 45.5458 47.8667 45.5458 47.0761 43.9221C47.0126 43.8695 46.949 43.8169 46.8835 43.7627C46.8202 43.7085 46.7569 43.6544 46.6916 43.5986C46.2313 43.2815 45.8386 43.2377 45.2848 43.2371C45.1779 43.2365 45.1779 43.2365 45.0689 43.236C44.8296 43.2351 44.5902 43.2356 44.3508 43.2361C44.1778 43.2357 44.0047 43.2353 43.8316 43.2347C43.3554 43.2335 42.8793 43.2336 42.4031 43.2338C41.8898 43.2338 41.3765 43.2328 40.8632 43.2318C39.8572 43.2302 38.8513 43.2297 37.8454 43.2296C37.0279 43.2295 36.2104 43.2291 35.3929 43.2284C33.076 43.2267 30.7591 43.2258 28.4422 43.226C28.3172 43.226 28.1923 43.226 28.0636 43.226C27.8759 43.226 27.8759 43.226 27.6845 43.226C25.6567 43.2261 23.6289 43.2242 21.601 43.2215C19.5198 43.2187 17.4385 43.2173 15.3572 43.2175C14.1884 43.2176 13.0196 43.217 11.8508 43.2149C10.8556 43.2131 9.86054 43.2127 8.86542 43.214C8.35761 43.2147 7.84982 43.2147 7.34202 43.213C6.87715 43.2115 6.41232 43.2117 5.94745 43.2134C5.77928 43.2137 5.61111 43.2134 5.44294 43.2123C3.99 43.1968 3.99 43.1968 2.84663 44.0373Z" fill="#002CBA"/>
</svg>
