<svg width="51" height="50" viewBox="0 0 51 50" fill="none" xmlns="http://www.w3.org/2000/svg">
<g clip-path="url(#clip0_9570_743983)">
<path d="M25.4691 -0.0308527C25.5636 -0.0306746 25.6581 -0.0304966 25.7554 -0.0303132C27.1551 -0.0258769 28.517 0.0238191 29.8942 0.292634C30.0256 0.316213 30.0256 0.316213 30.1596 0.34027C34.9143 1.20062 39.3112 3.49 42.7848 6.8356C42.8814 6.9282 42.8814 6.9282 42.9799 7.02267C43.9065 7.91568 44.76 8.82362 45.5192 9.86295C45.603 9.97535 45.6868 10.0878 45.7706 10.2002C46.3602 10.9999 46.8858 11.8303 47.3747 12.695C47.4139 12.764 47.4532 12.8331 47.4937 12.9043C48.7648 15.162 49.6177 17.618 50.1396 20.1535C50.1539 20.2229 50.1683 20.2922 50.1832 20.3637C50.4748 21.8913 50.5363 23.4183 50.5302 24.9691C50.5299 25.1109 50.5299 25.1109 50.5296 25.2554C50.5252 26.6551 50.4755 28.017 50.2067 29.3942C50.191 29.4818 50.1753 29.5694 50.1591 29.6596C49.2987 34.4143 47.0093 38.8112 43.6637 42.2848C43.602 42.3492 43.5403 42.4136 43.4767 42.4799C42.5836 43.4065 41.6757 44.26 40.6364 45.0192C40.524 45.103 40.4116 45.1868 40.2992 45.2706C39.4994 45.8602 38.6691 46.3858 37.8043 46.8747C37.7353 46.9139 37.6662 46.9532 37.5951 46.9937C35.3373 48.2648 32.8813 49.1177 30.3459 49.6396C30.2765 49.6539 30.2071 49.6683 30.1356 49.6832C28.608 49.9748 27.081 50.0363 25.5302 50.0302C25.4357 50.03 25.3412 50.0298 25.2439 50.0296C23.8442 50.0252 22.4823 49.9755 21.1051 49.7067C21.0175 49.691 20.9299 49.6753 20.8397 49.6591C16.085 48.7987 11.6881 46.5093 8.21451 43.1637C8.15012 43.102 8.08573 43.0403 8.01939 42.9767C7.0928 42.0836 6.23929 41.1757 5.48013 40.1364C5.39634 40.024 5.31254 39.9116 5.22874 39.7992C4.63914 38.9994 4.11348 38.1691 3.62466 37.3043C3.58539 37.2353 3.54611 37.1662 3.50565 37.0951C2.2345 34.8373 1.38164 32.3813 0.859772 29.8459C0.838187 29.7418 0.838187 29.7418 0.816166 29.6356C0.524524 28.108 0.463062 26.581 0.469147 25.0302C0.469325 24.9357 0.469503 24.8412 0.469687 24.7439C0.474123 23.3442 0.523819 21.9823 0.792634 20.6051C0.816213 20.4737 0.816213 20.4737 0.84027 20.3397C1.70062 15.585 3.99 11.1881 7.3356 7.71451C7.39733 7.65012 7.45906 7.58573 7.52267 7.51939C8.41568 6.5928 9.32362 5.73929 10.3629 4.98013C10.4754 4.89634 10.5878 4.81254 10.7002 4.72874C11.4999 4.13914 12.3303 3.61348 13.195 3.12466C13.264 3.08539 13.3331 3.04611 13.4043 3.00565C15.662 1.7345 18.118 0.881642 20.6535 0.359772C20.7576 0.338187 20.7576 0.338187 20.8637 0.316166C22.3913 0.0245243 23.9183 -0.0369376 25.4691 -0.0308527ZM20.9098 3.41763C20.8274 3.4354 20.745 3.45316 20.6601 3.47147C15.8286 4.54354 11.2319 7.38517 8.21451 11.3278C8.17249 11.3824 8.13048 11.437 8.08719 11.4933C7.41052 12.3774 6.81002 13.2891 6.26138 14.2575C6.22806 14.3153 6.19473 14.3731 6.16039 14.4327C4.91781 16.5998 4.12106 19.0233 3.72232 21.484C3.69624 21.6402 3.69624 21.6402 3.66963 21.7996C3.51086 22.8471 3.48815 23.8808 3.49039 24.9386C3.49041 25.0288 3.49043 25.119 3.49045 25.2119C3.49378 26.6738 3.5922 28.0621 3.91763 29.4918C3.93644 29.5785 3.95524 29.6651 3.97462 29.7544C4.75456 33.3081 6.42207 36.4434 8.70279 39.2575C8.9159 39.1779 8.9159 39.1779 8.97649 38.9646C9.01473 38.8367 9.01473 38.8367 9.05374 38.7062C9.08332 38.6108 9.11291 38.5153 9.14339 38.417C9.17524 38.3137 9.20708 38.2104 9.2399 38.1039C9.75014 36.5149 10.4457 35.0382 11.4372 33.6911C11.5482 33.5385 11.5482 33.5385 11.6615 33.3828C13.6328 30.7217 16.2562 28.736 19.3473 27.5387C19.3473 27.442 19.3473 27.3454 19.3473 27.2458C19.1597 27.0666 19.1597 27.0666 18.914 26.8918C18.0276 26.2054 17.332 25.4442 16.7106 24.5114C16.6523 24.4244 16.594 24.3374 16.534 24.2478C15.1062 21.9678 14.6609 19.1028 15.2152 16.4792C15.6086 14.7922 16.3446 13.2164 17.4919 11.9137C17.5578 11.8338 17.6238 11.7539 17.6917 11.6715C19.2626 9.8226 21.707 8.52075 24.1325 8.30045C27.1657 8.16997 29.8297 8.66584 32.2379 10.6442C32.3212 10.7113 32.4044 10.7784 32.4901 10.8475C34.1691 12.2727 35.2837 14.2654 35.7536 16.4059C35.7715 16.487 35.7894 16.5681 35.8078 16.6517C36.3464 19.3163 35.7943 22.0881 34.3952 24.4004C33.652 25.5158 32.6876 26.6131 31.5543 27.3434C31.7098 27.6544 32.0333 27.712 32.3417 27.8378C36.4 29.56 39.6359 32.826 41.3355 36.898C41.6242 37.6396 41.8625 38.4009 42.1012 39.1598C42.3889 39.1932 42.3889 39.1932 42.5269 39.0353C42.5718 38.977 42.6166 38.9186 42.6627 38.8585C42.7136 38.7926 42.7644 38.7268 42.8168 38.6589C42.8707 38.5865 42.9246 38.5142 42.9801 38.4396C43.0362 38.365 43.0923 38.2904 43.1501 38.2136C44.0845 36.951 44.8552 35.6008 45.5192 34.1793C45.5489 34.1167 45.5785 34.0541 45.6091 33.9896C46.343 32.4305 46.8391 30.7886 47.1793 29.1012C47.1941 29.0334 47.2088 28.9655 47.224 28.8956C47.7916 26.202 47.6755 23.0861 47.0817 20.4098C47.0639 20.3274 47.0462 20.245 47.0279 20.1601C45.9558 15.3286 43.1142 10.7319 39.1715 7.71451C39.1169 7.67249 39.0623 7.63048 39.0061 7.58719C38.1219 6.91052 37.2103 6.31002 36.2418 5.76138C36.184 5.72806 36.1262 5.69473 36.0666 5.66039C33.8995 4.41781 31.476 3.62103 29.0153 3.22232C28.859 3.19624 28.859 3.19624 28.6995 3.16963C27.654 3.01124 26.6225 2.98814 25.5668 2.99039C25.4318 2.99042 25.4318 2.99042 25.2941 2.99045C23.8009 2.99386 22.3721 3.09318 20.9098 3.41763ZM19.6735 13.8684C18.2917 15.6308 17.7406 17.7309 18.0063 19.9443C18.2479 21.3938 18.9458 22.7486 19.9333 23.8278C19.9909 23.8944 20.0486 23.961 20.108 24.0296C21.3631 25.3942 23.2491 26.184 25.08 26.2902C27.203 26.3608 29.0363 25.6545 30.648 24.2859C32.101 22.9203 32.9923 21.0142 33.0587 19.0201C33.0858 16.909 32.3471 14.9546 30.8978 13.3969C29.2929 11.8553 27.3842 11.1625 25.1915 11.1844C23.0318 11.2496 21.0764 12.2274 19.6735 13.8684ZM22.4723 29.6872C22.3712 29.706 22.2701 29.7249 22.166 29.7444C19.562 30.3037 17.3395 31.7864 15.4411 33.5934C15.378 33.6513 15.3149 33.7092 15.25 33.7689C13.131 35.7737 11.7402 38.8377 11.4009 41.713C11.4115 42.0032 11.4115 42.0032 11.6248 42.1967C11.716 42.26 11.8071 42.3233 11.901 42.3886C11.9522 42.4246 12.0035 42.4606 12.0562 42.4977C12.2389 42.6245 12.4238 42.7476 12.609 42.8708C12.6818 42.9201 12.7545 42.9694 12.8295 43.0202C16.6168 45.5845 20.8464 47.0191 25.4386 47.0089C25.5289 47.0089 25.6192 47.0088 25.7122 47.0088C27.1734 47.0048 28.5638 46.9139 29.9918 46.5817C30.1368 46.5487 30.1368 46.5487 30.2847 46.5151C31.4912 46.2352 32.6569 45.885 33.8004 45.4098C33.8639 45.384 33.9274 45.3583 33.9928 45.3317C35.4993 44.717 36.8831 43.9198 38.2158 42.9889C38.3893 42.8714 38.5663 42.7629 38.7458 42.6548C39.3159 42.3065 39.3159 42.3065 39.6331 41.7485C39.621 41.4184 39.5524 41.139 39.4645 40.82C39.4253 40.6613 39.3861 40.5026 39.347 40.3439C38.7625 38.0784 37.7527 36.0637 36.2418 34.277C36.1357 34.1501 36.1357 34.1501 36.0275 34.0207C33.7214 31.3438 30.1648 29.6834 26.6715 29.3942C25.2445 29.3119 23.8712 29.4005 22.4723 29.6872Z" fill="black"/>
</g>
<defs>
<clipPath id="clip0_9570_743983">
<rect width="50" height="50" fill="white" transform="translate(0.5)"/>
</clipPath>
</defs>
</svg>
