<svg width="52" height="52" viewBox="0 0 52 52" fill="none" xmlns="http://www.w3.org/2000/svg">
<path d="M23.4649 1.03049C23.5877 1.02919 23.7105 1.0279 23.8369 1.02656C23.9698 1.02582 24.1027 1.02507 24.2397 1.0243C24.3075 1.02389 24.3753 1.02348 24.4452 1.02305C24.8044 1.02095 25.1636 1.0195 25.5228 1.01855C25.8923 1.01744 26.2616 1.01397 26.6311 1.00995C26.9165 1.0073 27.2018 1.00646 27.4873 1.0061C27.6891 1.00537 27.891 1.00271 28.0929 1C28.987 1.00212 29.57 1.08275 30.2238 1.73656C30.6345 2.33501 30.7793 2.8291 30.8426 3.54859C30.982 4.83362 31.4035 5.94591 32.4072 6.81709C33.634 7.71191 34.809 7.93931 36.3039 7.81663C37.28 7.61519 38.0328 7.04404 38.7915 6.42762C39.3688 5.97361 39.9146 5.83407 40.6477 5.89727C41.9801 6.12639 42.9969 7.51503 43.9159 8.42849C44.0528 8.56419 44.1901 8.69944 44.3278 8.83424C44.5298 9.03189 44.7304 9.23086 44.9308 9.43017C45.0223 9.51906 45.0223 9.51906 45.1157 9.60976C45.7006 10.1977 46.0625 10.8391 46.128 11.6743C46.0702 12.5548 45.7464 13.0658 45.1709 13.716C44.2431 14.7863 44.1093 15.9332 44.1657 17.2947C44.2052 17.786 44.3609 18.1926 44.5874 18.6256C44.6365 18.7199 44.6856 18.8142 44.7362 18.9113C45.3036 19.8932 46.1297 20.5976 47.2139 20.9491C47.6566 21.0649 48.1017 21.1353 48.5552 21.1937C49.4473 21.3123 50.0123 21.4326 50.5854 22.1676C50.8975 22.6023 50.9646 22.9327 50.9695 23.4649C50.9708 23.5877 50.9721 23.7105 50.9734 23.8369C50.9746 24.0363 50.9746 24.0363 50.9757 24.2397C50.9761 24.3075 50.9765 24.3753 50.977 24.4452C50.9791 24.8044 50.9805 25.1636 50.9814 25.5228C50.9826 25.8923 50.986 26.2616 50.9901 26.6311C50.9927 26.9165 50.9935 27.2018 50.9939 27.4873C50.9946 27.6891 50.9973 27.891 51 28.0929C50.9979 28.987 50.9173 29.57 50.2634 30.2238C49.665 30.6345 49.1709 30.7793 48.4514 30.8426C47.1664 30.982 46.0541 31.4035 45.1829 32.4072C44.2881 33.634 44.0607 34.809 44.1834 36.3039C44.3848 37.28 44.956 38.0328 45.5724 38.7915C46.0264 39.3688 46.1659 39.9146 46.1027 40.6477C45.8736 41.9801 44.485 42.9969 43.5715 43.9159C43.4358 44.0528 43.3006 44.1901 43.1658 44.3278C42.9681 44.5298 42.7691 44.7304 42.5698 44.9308C42.5106 44.9918 42.4513 45.0528 42.3902 45.1157C41.8023 45.7006 41.1609 46.0625 40.3257 46.128C39.4452 46.0702 38.9342 45.7464 38.284 45.1709C37.2137 44.2431 36.0668 44.1093 34.7053 44.1657C34.214 44.2052 33.8074 44.3609 33.3744 44.5874C33.2801 44.6365 33.1858 44.6856 33.0887 44.7362C32.1068 45.3036 31.4024 46.1297 31.0509 47.2139C30.9353 47.6555 30.8639 48.0986 30.8098 48.5516C30.71 49.345 30.5809 49.9604 29.9622 50.503C29.4786 50.8639 29.1263 50.9641 28.5351 50.9695C28.4123 50.9708 28.2895 50.9721 28.1631 50.9734C28.0302 50.9742 27.8973 50.9749 27.7603 50.9757C27.6586 50.9763 27.6586 50.9763 27.5548 50.977C27.1956 50.9791 26.8364 50.9805 26.4772 50.9814C26.1078 50.9826 25.7384 50.986 25.3689 50.9901C25.0835 50.9927 24.7982 50.9935 24.5127 50.9939C24.3109 50.9946 24.109 50.9973 23.9071 51C23.0762 50.998 22.5074 50.9256 21.8559 50.3747C21.7883 50.2915 21.7883 50.2915 21.7193 50.2066C21.6727 50.1517 21.6261 50.0967 21.5781 50.0401C21.273 49.5484 21.2173 49.0219 21.1637 48.4577C21.0105 47.1159 20.5387 45.9265 19.4527 45.0547C18.3821 44.3354 17.194 43.9712 15.8981 44.1265C14.8292 44.3506 13.9598 44.8769 13.1789 45.6245C12.7422 45.9882 12.2589 46.0814 11.7058 46.1406C10.1397 45.9728 9.14579 44.6269 8.08412 43.5715C7.94724 43.4358 7.80992 43.3006 7.67215 43.1658C7.47018 42.9681 7.26959 42.7691 7.06925 42.5698C7.00821 42.5106 6.94718 42.4513 6.88429 42.3902C6.29937 41.8023 5.93752 41.1609 5.87202 40.3257C5.92975 39.4452 6.25358 38.9342 6.82906 38.284C7.75693 37.2137 7.89071 36.0668 7.83429 34.7053C7.7948 34.214 7.63913 33.8074 7.41255 33.3744C7.36346 33.2801 7.31437 33.1858 7.26379 33.0887C6.69642 32.1068 5.87033 31.4024 4.78606 31.0509C4.34446 30.9353 3.9014 30.8639 3.44836 30.8098C2.65501 30.71 2.03955 30.5809 1.49704 29.9622C1.13612 29.4786 1.03593 29.1263 1.03049 28.5351C1.02919 28.4123 1.0279 28.2895 1.02656 28.1631C1.02582 28.0302 1.02507 27.8973 1.0243 27.7603C1.02389 27.6925 1.02348 27.6247 1.02305 27.5548C1.02095 27.1956 1.0195 26.8364 1.01855 26.4772C1.01744 26.1078 1.01397 25.7384 1.00995 25.3689C1.0073 25.0835 1.00646 24.7982 1.0061 24.5127C1.00537 24.3109 1.00271 24.109 1 23.9071C1.00197 23.0762 1.07437 22.5074 1.62528 21.8559C1.68076 21.8108 1.73623 21.7658 1.79338 21.7193C1.87581 21.6494 1.87581 21.6494 1.95991 21.5781C2.45155 21.273 2.97806 21.2173 3.54227 21.1637C4.8284 21.0169 5.94422 20.5985 6.81709 19.5928C7.71191 18.366 7.93931 17.191 7.81663 15.6961C7.61519 14.72 7.04404 13.9672 6.42762 13.2085C5.97361 12.6312 5.83407 12.0854 5.89727 11.3523C6.12639 10.0199 7.51503 9.00306 8.42849 8.08412C8.56419 7.94724 8.69944 7.80992 8.83424 7.67215C9.03189 7.47018 9.23086 7.26959 9.43017 7.06925C9.48943 7.00821 9.5487 6.94718 9.60976 6.88429C10.1977 6.29937 10.8391 5.93752 11.6743 5.87202C12.5548 5.92975 13.0658 6.25358 13.716 6.82906C14.7863 7.75693 15.9332 7.89071 17.2947 7.83429C17.786 7.7948 18.1926 7.63913 18.6256 7.41255C18.7199 7.36346 18.8142 7.31437 18.9113 7.26379C19.8932 6.69642 20.5976 5.87033 20.9491 4.78606C21.0649 4.34342 21.1353 3.89833 21.1937 3.4448C21.3123 2.55265 21.4326 1.98771 22.1676 1.41456C22.6023 1.10248 22.9327 1.03538 23.4649 1.03049ZM22.896 2.81936C22.6974 3.20441 22.6768 3.60171 22.6285 4.02842C22.4123 5.65173 21.7433 7.07262 20.444 8.11968C18.7985 9.22883 17.0681 9.61126 15.0983 9.26167C14.1524 8.9927 13.303 8.55754 12.5834 7.88608C12.3201 7.64107 12.1746 7.51874 11.8321 7.39361C11.1502 7.44011 10.688 8.04266 10.23 8.49732C10.1525 8.57393 10.075 8.65054 9.99511 8.72948C9.83182 8.8913 9.66882 9.0534 9.50608 9.21577C9.25684 9.46381 9.00577 9.7099 8.7546 9.95598C8.59599 10.1136 8.43748 10.2714 8.2791 10.4293C8.20387 10.5026 8.12864 10.5758 8.05113 10.6513C7.74396 10.9612 7.53966 11.168 7.40764 11.5893C7.41724 12.1135 7.7722 12.4386 8.10074 12.8171C9.28388 14.2769 9.46792 15.9075 9.33191 17.7165C9.04667 19.3501 8.06691 20.7329 6.74172 21.7039C5.7547 22.3429 4.71003 22.5256 3.56634 22.7189C3.47714 22.7349 3.38794 22.7509 3.29604 22.7674C3.21947 22.7799 3.1429 22.7924 3.06401 22.8053C2.82099 22.883 2.7187 22.9697 2.56365 23.1715C2.46872 23.4713 2.4494 23.7451 2.44796 24.0585C2.44731 24.1539 2.44667 24.2494 2.44601 24.3477C2.44589 24.4501 2.44578 24.5525 2.44567 24.658C2.44533 24.7638 2.44499 24.8697 2.44465 24.9787C2.44414 25.2025 2.4439 25.4262 2.44391 25.65C2.44369 25.992 2.44186 26.3341 2.43994 26.6762C2.43965 26.8936 2.43945 27.1111 2.43935 27.3286C2.43863 27.4308 2.4379 27.533 2.43715 27.6383C2.43746 27.734 2.43777 27.8298 2.43809 27.9284C2.43795 28.0122 2.43781 28.096 2.43766 28.1823C2.47491 28.5434 2.57774 28.8315 2.81936 29.104C3.20441 29.3026 3.60171 29.3232 4.02842 29.3715C5.67289 29.5905 7.04 30.2669 8.11968 31.556C9.25414 33.1789 9.60283 34.9543 9.26246 36.9037C8.98989 37.8486 8.5578 38.6968 7.88608 39.4165C7.64107 39.6799 7.51874 39.8254 7.39361 40.1679C7.44011 40.8498 8.04266 41.312 8.49732 41.77C8.61224 41.8863 8.61224 41.8863 8.72948 42.0049C8.8913 42.1682 9.0534 42.3312 9.21577 42.4939C9.46381 42.7432 9.7099 42.9942 9.95598 43.2454C10.1136 43.404 10.2714 43.5625 10.4293 43.7209C10.5026 43.7961 10.5758 43.8714 10.6513 43.9489C10.9612 44.256 11.168 44.4603 11.5893 44.5924C12.1135 44.5828 12.4386 44.2278 12.8171 43.8993C13.9956 42.9441 15.4648 42.4902 16.9742 42.5919C18.523 42.7696 20.1381 43.3211 21.1696 44.5464C22.1355 45.7771 22.4609 46.9074 22.7189 48.4337C22.7349 48.5229 22.7509 48.6121 22.7674 48.704C22.7799 48.7805 22.7924 48.8571 22.8053 48.936C22.883 49.179 22.9697 49.2813 23.1715 49.4363C23.4713 49.5313 23.7451 49.5506 24.0585 49.552C24.1539 49.5527 24.2494 49.5533 24.3477 49.554C24.4501 49.5541 24.5525 49.5542 24.658 49.5543C24.8167 49.5548 24.8167 49.5548 24.9787 49.5553C25.2025 49.5559 25.4262 49.5561 25.65 49.5561C25.992 49.5563 26.3341 49.5581 26.6762 49.5601C26.8936 49.5604 27.1111 49.5605 27.3286 49.5606C27.4308 49.5614 27.533 49.5621 27.6383 49.5629C27.734 49.5625 27.8298 49.5622 27.9284 49.5619C28.0541 49.5621 28.0541 49.5621 28.1823 49.5623C28.5434 49.5251 28.8315 49.4223 29.104 49.1806C29.3026 48.7956 29.3232 48.3983 29.3715 47.9716C29.5905 46.3271 30.2669 44.96 31.556 43.8803C33.1789 42.7459 34.9543 42.3972 36.9037 42.7375C37.8486 43.0101 38.6968 43.4422 39.4165 44.1139C39.6799 44.3589 39.8254 44.4813 40.1679 44.6064C40.8498 44.5599 41.312 43.9573 41.77 43.5027C41.8475 43.4261 41.925 43.3495 42.0049 43.2705C42.1682 43.1087 42.3312 42.9466 42.4939 42.7842C42.7432 42.5362 42.9942 42.2901 43.2454 42.044C43.404 41.8864 43.5625 41.7286 43.7209 41.5707C43.8337 41.4608 43.8337 41.4608 43.9489 41.3487C44.256 41.0388 44.4603 40.832 44.5924 40.4107C44.5828 39.8865 44.2278 39.5614 43.8993 39.1829C42.7161 37.7231 42.5321 36.0925 42.6681 34.2835C42.9533 32.6499 43.9331 31.2671 45.2583 30.2961C46.2453 29.6571 47.29 29.4744 48.4337 29.2811C48.5675 29.2571 48.5675 29.2571 48.704 29.2326C48.7805 29.2201 48.8571 29.2076 48.936 29.1947C49.179 29.117 49.2813 29.0303 49.4363 28.8285C49.5313 28.5287 49.5506 28.2549 49.552 27.9415C49.5527 27.8461 49.5533 27.7506 49.554 27.6523C49.5541 27.5499 49.5542 27.4475 49.5543 27.342C49.5547 27.2362 49.555 27.1303 49.5553 27.0213C49.5559 26.7975 49.5561 26.5738 49.5561 26.35C49.5563 26.008 49.5581 25.6659 49.5601 25.3238C49.5604 25.1064 49.5605 24.8889 49.5606 24.6714C49.5617 24.5181 49.5617 24.5181 49.5629 24.3617C49.5625 24.266 49.5622 24.1702 49.5619 24.0716C49.5621 23.9459 49.5621 23.9459 49.5623 23.8177C49.5251 23.4566 49.4223 23.1685 49.1806 22.896C48.7956 22.6974 48.3983 22.6768 47.9716 22.6285C46.3271 22.4095 44.96 21.7331 43.8803 20.444C42.7459 18.8211 42.3972 17.0457 42.7375 15.0963C43.0101 14.1514 43.4422 13.3032 44.1139 12.5834C44.3589 12.3201 44.4813 12.1746 44.6064 11.8321C44.5599 11.1502 43.9573 10.688 43.5027 10.23C43.4261 10.1525 43.3495 10.075 43.2705 9.99511C43.1087 9.83182 42.9466 9.66882 42.7842 9.50608C42.5362 9.25684 42.2901 9.00577 42.044 8.7546C41.8864 8.59599 41.7286 8.43748 41.5707 8.2791C41.4608 8.16626 41.4608 8.16625 41.3487 8.05113C41.0388 7.74396 40.832 7.53966 40.4107 7.40764C39.8865 7.41724 39.5614 7.7722 39.1829 8.10074C37.7231 9.28388 36.0925 9.46792 34.2835 9.33191C32.6499 9.04667 31.2671 8.06691 30.2961 6.74172C29.6571 5.7547 29.4744 4.71003 29.2811 3.56634C29.2571 3.43254 29.2571 3.43254 29.2326 3.29604C29.2201 3.21947 29.2076 3.1429 29.1947 3.06401C29.117 2.82099 29.0303 2.7187 28.8285 2.56365C28.5287 2.46872 28.2549 2.4494 27.9415 2.44796C27.7983 2.44699 27.7984 2.44699 27.6523 2.44601C27.5499 2.44589 27.4475 2.44578 27.342 2.44567C27.1833 2.44516 27.1833 2.44516 27.0213 2.44465C26.7975 2.44414 26.5738 2.4439 26.35 2.44391C26.008 2.44369 25.6659 2.44186 25.3238 2.43994C25.1064 2.43965 24.8889 2.43945 24.6714 2.43935C24.5692 2.43863 24.467 2.4379 24.3617 2.43715C24.2181 2.43762 24.2181 2.43762 24.0716 2.43809C23.9459 2.43788 23.9459 2.43788 23.8177 2.43766C23.4566 2.47491 23.1685 2.57774 22.896 2.81936Z" fill="black"/>
<path d="M25.9745 11.1453C26.0502 11.1454 26.1259 11.1456 26.2039 11.1458C27.3075 11.1503 28.3562 11.1947 29.4281 11.4793C29.4958 11.4961 29.5635 11.5128 29.6332 11.5301C31.7731 12.0638 33.8111 13.0523 35.4783 14.5044C35.5632 14.5783 35.6481 14.6521 35.7355 14.7282C35.9891 14.9529 36.2386 15.1812 36.4867 15.412C36.555 15.4749 36.6234 15.5378 36.6938 15.6026C39.121 17.9226 40.7532 21.535 40.8492 24.892C40.8556 25.253 40.8559 25.6138 40.8541 25.9749C40.8538 26.0884 40.8539 26.0884 40.8536 26.2043C40.8491 27.3079 40.8047 28.3566 40.5201 29.4286C40.5033 29.4963 40.4866 29.564 40.4693 29.6337C39.5125 33.4698 37.0333 36.7841 33.6506 38.8192C31.2847 40.1958 28.7568 40.8686 26.0249 40.8549C25.9113 40.8546 25.9113 40.8546 25.7955 40.8543C24.6919 40.8498 23.6432 40.8055 22.5713 40.5208C22.5036 40.5041 22.4359 40.4873 22.3661 40.47C18.568 39.5227 15.2753 37.0787 13.2313 33.7457C12.5408 32.5771 12.021 31.3557 11.6431 30.0525C11.6191 29.9696 11.595 29.8866 11.5702 29.8012C11.2276 28.5505 11.1386 27.3152 11.1453 26.0253C11.1455 25.9495 11.1457 25.8737 11.1459 25.7955C11.151 24.6913 11.1917 23.6436 11.4793 22.5715C11.4988 22.4946 11.5183 22.4176 11.5384 22.3384C12.5065 18.5612 14.8918 15.2735 18.2365 13.2471C19.4106 12.557 20.6157 12.0374 21.9221 11.6558C22.0066 11.6309 22.0912 11.606 22.1782 11.5804C23.4359 11.2289 24.6757 11.1387 25.9745 11.1453ZM17.832 15.412C17.7775 15.4551 17.7231 15.4982 17.667 15.5427C14.9339 17.727 13.1058 20.8934 12.6893 24.3866C12.6578 24.8891 12.6508 25.3896 12.6515 25.8929C12.6516 25.9611 12.6517 26.0293 12.6518 26.0996C12.6647 29.1328 13.636 32.2868 15.7144 34.5714C15.781 34.5714 15.8475 34.5714 15.9161 34.5714C16.0558 34.3638 16.1852 34.1558 16.3131 33.9411C17.9416 31.3147 20.6087 29.6258 23.5796 28.9244C26.5918 28.276 29.7537 28.9214 32.3524 30.5378C33.8431 31.517 35.3341 32.928 36.0833 34.5714C36.5108 34.4289 36.6664 34.1173 36.9089 33.7583C36.958 33.686 37.0071 33.6137 37.0577 33.5391C37.5444 32.8064 37.9463 32.0476 38.3017 31.2437C38.3302 31.1798 38.3586 31.1159 38.3879 31.0501C39.7339 27.9559 39.6916 24.291 38.5017 21.1561C37.9323 19.7472 37.156 18.4922 36.1842 17.3279C36.0892 17.2117 36.0892 17.2117 35.9923 17.0932C35.5916 16.617 35.1533 16.2084 34.6716 15.8153C34.5772 15.7374 34.4829 15.6594 34.3856 15.579C32.0038 13.6532 29.1122 12.6422 26.0501 12.6515C25.9794 12.6516 25.9086 12.6517 25.8357 12.6518C22.9145 12.6638 20.1281 13.5764 17.832 15.412ZM18.4734 33.4425C17.4848 34.4991 17.4848 34.4991 17.0332 35.7767C17.6401 37.1242 20.0571 38.0641 21.3471 38.558C21.9788 38.7879 22.6205 38.9651 23.2771 39.1091C23.3559 39.1269 23.4348 39.1447 23.516 39.1631C24.3062 39.3263 25.0809 39.3497 25.8863 39.3486C25.9547 39.3485 26.0232 39.3484 26.0937 39.3483C29.3436 39.3346 32.6368 38.2196 34.9741 35.8823C34.867 34.6139 33.4007 33.2312 32.4847 32.4285C28.2737 29.0814 22.1323 29.4129 18.4734 33.4425Z" fill="black"/>
<path d="M29.544 16.6519C30.7597 17.6784 31.6278 18.9926 31.7808 20.6102C31.8863 22.3789 31.4899 23.9038 30.3183 25.2765C29.2418 26.3998 27.8907 27.0527 26.3318 27.0864C25.3873 27.0939 24.5853 27.0242 23.702 26.6529C23.6284 26.6237 23.5548 26.5945 23.4789 26.5645C21.9933 25.9035 21.0492 24.596 20.4789 23.1172C19.9533 21.693 20.2358 20.0028 20.844 18.666C21.1706 18.0393 21.5905 17.5503 22.0904 17.0559C22.1473 16.9979 22.2042 16.9398 22.2628 16.88C24.2201 15.0318 27.4563 15.1066 29.544 16.6519ZM22.55 18.7985C21.8293 19.8775 21.6169 21.0031 21.8359 22.2845C22.0797 23.2187 22.6178 24.155 23.3999 24.7335C24.6347 25.4397 25.8557 25.8191 27.2781 25.4501C28.5869 24.9271 29.4902 24.0668 30.0531 22.775C30.4119 21.7802 30.3587 20.6507 29.9851 19.6702C29.4723 18.5965 28.7074 17.7979 27.6129 17.3207C25.7017 16.6627 23.8045 17.1898 22.55 18.7985Z" fill="black"/>
<path d="M23.4649 1.03049C23.5877 1.02919 23.7105 1.0279 23.8369 1.02656C23.9698 1.02582 24.1027 1.02507 24.2397 1.0243C24.3075 1.02389 24.3753 1.02348 24.4452 1.02305C24.8044 1.02095 25.1636 1.0195 25.5228 1.01855C25.8923 1.01744 26.2616 1.01397 26.6311 1.00995C26.9165 1.0073 27.2018 1.00646 27.4873 1.0061C27.6891 1.00537 27.891 1.00271 28.0929 1C28.987 1.00212 29.57 1.08275 30.2238 1.73656C30.6345 2.33501 30.7793 2.8291 30.8426 3.54859C30.982 4.83362 31.4035 5.94591 32.4072 6.81709C33.634 7.71191 34.809 7.93931 36.3039 7.81663C37.28 7.61519 38.0328 7.04404 38.7915 6.42762C39.3688 5.97361 39.9146 5.83407 40.6477 5.89727C41.9801 6.12639 42.9969 7.51503 43.9159 8.42849C44.0528 8.56419 44.1901 8.69944 44.3278 8.83424C44.5298 9.03189 44.7304 9.23086 44.9308 9.43017C45.0223 9.51906 45.0223 9.51906 45.1157 9.60976C45.7006 10.1977 46.0625 10.8391 46.128 11.6743C46.0702 12.5548 45.7464 13.0658 45.1709 13.716C44.2431 14.7863 44.1093 15.9332 44.1657 17.2947C44.2052 17.786 44.3609 18.1926 44.5874 18.6256C44.6365 18.7199 44.6856 18.8142 44.7362 18.9113C45.3036 19.8932 46.1297 20.5976 47.2139 20.9491C47.6566 21.0649 48.1017 21.1353 48.5552 21.1937C49.4473 21.3123 50.0123 21.4326 50.5854 22.1676C50.8975 22.6023 50.9646 22.9327 50.9695 23.4649C50.9708 23.5877 50.9721 23.7105 50.9734 23.8369C50.9746 24.0363 50.9746 24.0363 50.9757 24.2397C50.9761 24.3075 50.9765 24.3753 50.977 24.4452C50.9791 24.8044 50.9805 25.1636 50.9814 25.5228C50.9826 25.8923 50.986 26.2616 50.9901 26.6311C50.9927 26.9165 50.9935 27.2018 50.9939 27.4873C50.9946 27.6891 50.9973 27.891 51 28.0929C50.9979 28.987 50.9173 29.57 50.2634 30.2238C49.665 30.6345 49.1709 30.7793 48.4514 30.8426C47.1664 30.982 46.0541 31.4035 45.1829 32.4072C44.2881 33.634 44.0607 34.809 44.1834 36.3039C44.3848 37.28 44.956 38.0328 45.5724 38.7915C46.0264 39.3688 46.1659 39.9146 46.1027 40.6477C45.8736 41.9801 44.485 42.9969 43.5715 43.9159C43.4358 44.0528 43.3006 44.1901 43.1658 44.3278C42.9681 44.5298 42.7691 44.7304 42.5698 44.9308C42.5106 44.9918 42.4513 45.0528 42.3902 45.1157C41.8023 45.7006 41.1609 46.0625 40.3257 46.128C39.4452 46.0702 38.9342 45.7464 38.284 45.1709C37.2137 44.2431 36.0668 44.1093 34.7053 44.1657C34.214 44.2052 33.8074 44.3609 33.3744 44.5874C33.2801 44.6365 33.1858 44.6856 33.0887 44.7362C32.1068 45.3036 31.4024 46.1297 31.0509 47.2139C30.9353 47.6555 30.8639 48.0986 30.8098 48.5516C30.71 49.345 30.5809 49.9604 29.9622 50.503C29.4786 50.8639 29.1263 50.9641 28.5351 50.9695C28.4123 50.9708 28.2895 50.9721 28.1631 50.9734C28.0302 50.9742 27.8973 50.9749 27.7603 50.9757C27.6586 50.9763 27.6586 50.9763 27.5548 50.977C27.1956 50.9791 26.8364 50.9805 26.4772 50.9814C26.1078 50.9826 25.7384 50.986 25.3689 50.9901C25.0835 50.9927 24.7982 50.9935 24.5127 50.9939C24.3109 50.9946 24.109 50.9973 23.9071 51C23.0762 50.998 22.5074 50.9256 21.8559 50.3747C21.7883 50.2915 21.7883 50.2915 21.7193 50.2066C21.6727 50.1517 21.6261 50.0967 21.5781 50.0401C21.273 49.5484 21.2173 49.0219 21.1637 48.4577C21.0105 47.1159 20.5387 45.9265 19.4527 45.0547C18.3821 44.3354 17.194 43.9712 15.8981 44.1265C14.8292 44.3506 13.9598 44.8769 13.1789 45.6245C12.7422 45.9882 12.2589 46.0814 11.7058 46.1406C10.1397 45.9728 9.14579 44.6269 8.08412 43.5715C7.94724 43.4358 7.80992 43.3006 7.67215 43.1658C7.47018 42.9681 7.26959 42.7691 7.06925 42.5698C7.00821 42.5106 6.94718 42.4513 6.88429 42.3902C6.29937 41.8023 5.93752 41.1609 5.87202 40.3257C5.92975 39.4452 6.25358 38.9342 6.82906 38.284C7.75693 37.2137 7.89071 36.0668 7.83429 34.7053C7.7948 34.214 7.63913 33.8074 7.41255 33.3744C7.36346 33.2801 7.31437 33.1858 7.26379 33.0887C6.69642 32.1068 5.87033 31.4024 4.78606 31.0509C4.34446 30.9353 3.9014 30.8639 3.44836 30.8098C2.65501 30.71 2.03955 30.5809 1.49704 29.9622C1.13612 29.4786 1.03593 29.1263 1.03049 28.5351C1.02919 28.4123 1.0279 28.2895 1.02656 28.1631C1.02582 28.0302 1.02507 27.8973 1.0243 27.7603C1.02389 27.6925 1.02348 27.6247 1.02305 27.5548C1.02095 27.1956 1.0195 26.8364 1.01855 26.4772C1.01744 26.1078 1.01397 25.7384 1.00995 25.3689C1.0073 25.0835 1.00646 24.7982 1.0061 24.5127C1.00537 24.3109 1.00271 24.109 1 23.9071C1.00197 23.0762 1.07437 22.5074 1.62528 21.8559C1.68076 21.8108 1.73623 21.7658 1.79338 21.7193C1.87581 21.6494 1.87581 21.6494 1.95991 21.5781C2.45155 21.273 2.97806 21.2173 3.54227 21.1637C4.8284 21.0169 5.94422 20.5985 6.81709 19.5928C7.71191 18.366 7.93931 17.191 7.81663 15.6961C7.61519 14.72 7.04404 13.9672 6.42762 13.2085C5.97361 12.6312 5.83407 12.0854 5.89727 11.3523C6.12639 10.0199 7.51503 9.00306 8.42849 8.08412C8.56419 7.94724 8.69944 7.80992 8.83424 7.67215C9.03189 7.47018 9.23086 7.26959 9.43017 7.06925C9.48943 7.00821 9.5487 6.94718 9.60976 6.88429C10.1977 6.29937 10.8391 5.93752 11.6743 5.87202C12.5548 5.92975 13.0658 6.25358 13.716 6.82906C14.7863 7.75693 15.9332 7.89071 17.2947 7.83429C17.786 7.7948 18.1926 7.63913 18.6256 7.41255C18.7199 7.36346 18.8142 7.31437 18.9113 7.26379C19.8932 6.69642 20.5976 5.87033 20.9491 4.78606C21.0649 4.34342 21.1353 3.89833 21.1937 3.4448C21.3123 2.55265 21.4326 1.98771 22.1676 1.41456C22.6023 1.10248 22.9327 1.03538 23.4649 1.03049ZM22.896 2.81936C22.6974 3.20441 22.6768 3.60171 22.6285 4.02842C22.4123 5.65173 21.7433 7.07262 20.444 8.11968C18.7985 9.22883 17.0681 9.61126 15.0983 9.26167C14.1524 8.9927 13.303 8.55754 12.5834 7.88608C12.3201 7.64107 12.1746 7.51874 11.8321 7.39361C11.1502 7.44011 10.688 8.04266 10.23 8.49732C10.1525 8.57393 10.075 8.65054 9.99511 8.72948C9.83182 8.8913 9.66882 9.0534 9.50608 9.21577C9.25684 9.46381 9.00577 9.7099 8.7546 9.95598C8.59599 10.1136 8.43748 10.2714 8.2791 10.4293C8.20387 10.5026 8.12864 10.5758 8.05113 10.6513C7.74396 10.9612 7.53966 11.168 7.40764 11.5893C7.41724 12.1135 7.7722 12.4386 8.10074 12.8171C9.28388 14.2769 9.46792 15.9075 9.33191 17.7165C9.04667 19.3501 8.06691 20.7329 6.74172 21.7039C5.7547 22.3429 4.71003 22.5256 3.56634 22.7189C3.47714 22.7349 3.38794 22.7509 3.29604 22.7674C3.21947 22.7799 3.1429 22.7924 3.06401 22.8053C2.82099 22.883 2.7187 22.9697 2.56365 23.1715C2.46872 23.4713 2.4494 23.7451 2.44796 24.0585C2.44731 24.1539 2.44667 24.2494 2.44601 24.3477C2.44589 24.4501 2.44578 24.5525 2.44567 24.658C2.44533 24.7638 2.44499 24.8697 2.44465 24.9787C2.44414 25.2025 2.4439 25.4262 2.44391 25.65C2.44369 25.992 2.44186 26.3341 2.43994 26.6762C2.43965 26.8936 2.43945 27.1111 2.43935 27.3286C2.43863 27.4308 2.4379 27.533 2.43715 27.6383C2.43746 27.734 2.43777 27.8298 2.43809 27.9284C2.43795 28.0122 2.43781 28.096 2.43766 28.1823C2.47491 28.5434 2.57774 28.8315 2.81936 29.104C3.20441 29.3026 3.60171 29.3232 4.02842 29.3715C5.67289 29.5905 7.04 30.2669 8.11968 31.556C9.25414 33.1789 9.60283 34.9543 9.26246 36.9037C8.98989 37.8486 8.5578 38.6968 7.88608 39.4165C7.64107 39.6799 7.51874 39.8254 7.39361 40.1679C7.44011 40.8498 8.04266 41.312 8.49732 41.77C8.61224 41.8863 8.61224 41.8863 8.72948 42.0049C8.8913 42.1682 9.0534 42.3312 9.21577 42.4939C9.46381 42.7432 9.7099 42.9942 9.95598 43.2454C10.1136 43.404 10.2714 43.5625 10.4293 43.7209C10.5026 43.7961 10.5758 43.8714 10.6513 43.9489C10.9612 44.256 11.168 44.4603 11.5893 44.5924C12.1135 44.5828 12.4386 44.2278 12.8171 43.8993C13.9956 42.9441 15.4648 42.4902 16.9742 42.5919C18.523 42.7696 20.1381 43.3211 21.1696 44.5464C22.1355 45.7771 22.4609 46.9074 22.7189 48.4337C22.7349 48.5229 22.7509 48.6121 22.7674 48.704C22.7799 48.7805 22.7924 48.8571 22.8053 48.936C22.883 49.179 22.9697 49.2813 23.1715 49.4363C23.4713 49.5313 23.7451 49.5506 24.0585 49.552C24.1539 49.5527 24.2494 49.5533 24.3477 49.554C24.4501 49.5541 24.5525 49.5542 24.658 49.5543C24.8167 49.5548 24.8167 49.5548 24.9787 49.5553C25.2025 49.5559 25.4262 49.5561 25.65 49.5561C25.992 49.5563 26.3341 49.5581 26.6762 49.5601C26.8936 49.5604 27.1111 49.5605 27.3286 49.5606C27.4308 49.5614 27.533 49.5621 27.6383 49.5629C27.734 49.5625 27.8298 49.5622 27.9284 49.5619C28.0541 49.5621 28.0541 49.5621 28.1823 49.5623C28.5434 49.5251 28.8315 49.4223 29.104 49.1806C29.3026 48.7956 29.3232 48.3983 29.3715 47.9716C29.5905 46.3271 30.2669 44.96 31.556 43.8803C33.1789 42.7459 34.9543 42.3972 36.9037 42.7375C37.8486 43.0101 38.6968 43.4422 39.4165 44.1139C39.6799 44.3589 39.8254 44.4813 40.1679 44.6064C40.8498 44.5599 41.312 43.9573 41.77 43.5027C41.8475 43.4261 41.925 43.3495 42.0049 43.2705C42.1682 43.1087 42.3312 42.9466 42.4939 42.7842C42.7432 42.5362 42.9942 42.2901 43.2454 42.044C43.404 41.8864 43.5625 41.7286 43.7209 41.5707C43.8337 41.4608 43.8337 41.4608 43.9489 41.3487C44.256 41.0388 44.4603 40.832 44.5924 40.4107C44.5828 39.8865 44.2278 39.5614 43.8993 39.1829C42.7161 37.7231 42.5321 36.0925 42.6681 34.2835C42.9533 32.6499 43.9331 31.2671 45.2583 30.2961C46.2453 29.6571 47.29 29.4744 48.4337 29.2811C48.5675 29.2571 48.5675 29.2571 48.704 29.2326C48.7805 29.2201 48.8571 29.2076 48.936 29.1947C49.179 29.117 49.2813 29.0303 49.4363 28.8285C49.5313 28.5287 49.5506 28.2549 49.552 27.9415C49.5527 27.8461 49.5533 27.7506 49.554 27.6523C49.5541 27.5499 49.5542 27.4475 49.5543 27.342C49.5547 27.2362 49.555 27.1303 49.5553 27.0213C49.5559 26.7975 49.5561 26.5738 49.5561 26.35C49.5563 26.008 49.5581 25.6659 49.5601 25.3238C49.5604 25.1064 49.5605 24.8889 49.5606 24.6714C49.5617 24.5181 49.5617 24.5181 49.5629 24.3617C49.5625 24.266 49.5622 24.1702 49.5619 24.0716C49.5621 23.9459 49.5621 23.9459 49.5623 23.8177C49.5251 23.4566 49.4223 23.1685 49.1806 22.896C48.7956 22.6974 48.3983 22.6768 47.9716 22.6285C46.3271 22.4095 44.96 21.7331 43.8803 20.444C42.7459 18.8211 42.3972 17.0457 42.7375 15.0963C43.0101 14.1514 43.4422 13.3032 44.1139 12.5834C44.3589 12.3201 44.4813 12.1746 44.6064 11.8321C44.5599 11.1502 43.9573 10.688 43.5027 10.23C43.4261 10.1525 43.3495 10.075 43.2705 9.99511C43.1087 9.83182 42.9466 9.66882 42.7842 9.50608C42.5362 9.25684 42.2901 9.00577 42.044 8.7546C41.8864 8.59599 41.7286 8.43748 41.5707 8.2791C41.4608 8.16626 41.4608 8.16625 41.3487 8.05113C41.0388 7.74396 40.832 7.53966 40.4107 7.40764C39.8865 7.41724 39.5614 7.7722 39.1829 8.10074C37.7231 9.28388 36.0925 9.46792 34.2835 9.33191C32.6499 9.04667 31.2671 8.06691 30.2961 6.74172C29.6571 5.7547 29.4744 4.71003 29.2811 3.56634C29.2571 3.43254 29.2571 3.43254 29.2326 3.29604C29.2201 3.21947 29.2076 3.1429 29.1947 3.06401C29.117 2.82099 29.0303 2.7187 28.8285 2.56365C28.5287 2.46872 28.2549 2.4494 27.9415 2.44796C27.7983 2.44699 27.7984 2.44699 27.6523 2.44601C27.5499 2.44589 27.4475 2.44578 27.342 2.44567C27.1833 2.44516 27.1833 2.44516 27.0213 2.44465C26.7975 2.44414 26.5738 2.4439 26.35 2.44391C26.008 2.44369 25.6659 2.44186 25.3238 2.43994C25.1064 2.43965 24.8889 2.43945 24.6714 2.43935C24.5692 2.43863 24.467 2.4379 24.3617 2.43715C24.2181 2.43762 24.2181 2.43762 24.0716 2.43809C23.9459 2.43788 23.9459 2.43788 23.8177 2.43766C23.4566 2.47491 23.1685 2.57774 22.896 2.81936Z" stroke="black"/>
<path d="M25.9745 11.1453C26.0502 11.1454 26.1259 11.1456 26.2039 11.1458C27.3075 11.1503 28.3562 11.1947 29.4281 11.4793C29.4958 11.4961 29.5635 11.5128 29.6332 11.5301C31.7731 12.0638 33.8111 13.0523 35.4783 14.5044C35.5632 14.5783 35.6481 14.6521 35.7355 14.7282C35.9891 14.9529 36.2386 15.1812 36.4867 15.412C36.555 15.4749 36.6234 15.5378 36.6938 15.6026C39.121 17.9226 40.7532 21.535 40.8492 24.892C40.8556 25.253 40.8559 25.6138 40.8541 25.9749C40.8538 26.0884 40.8539 26.0884 40.8536 26.2043C40.8491 27.3079 40.8047 28.3566 40.5201 29.4286C40.5033 29.4963 40.4866 29.564 40.4693 29.6337C39.5125 33.4698 37.0333 36.7841 33.6506 38.8192C31.2847 40.1958 28.7568 40.8686 26.0249 40.8549C25.9113 40.8546 25.9113 40.8546 25.7955 40.8543C24.6919 40.8498 23.6432 40.8055 22.5713 40.5208C22.5036 40.5041 22.4359 40.4873 22.3661 40.47C18.568 39.5227 15.2753 37.0787 13.2313 33.7457C12.5408 32.5771 12.021 31.3557 11.6431 30.0525C11.6191 29.9696 11.595 29.8866 11.5702 29.8012C11.2276 28.5505 11.1386 27.3152 11.1453 26.0253C11.1455 25.9495 11.1457 25.8737 11.1459 25.7955C11.151 24.6913 11.1917 23.6436 11.4793 22.5715C11.4988 22.4946 11.5183 22.4176 11.5384 22.3384C12.5065 18.5612 14.8918 15.2735 18.2365 13.2471C19.4106 12.557 20.6157 12.0374 21.9221 11.6558C22.0066 11.6309 22.0912 11.606 22.1782 11.5804C23.4359 11.2289 24.6757 11.1387 25.9745 11.1453ZM17.832 15.412C17.7775 15.4551 17.7231 15.4982 17.667 15.5427C14.9339 17.727 13.1058 20.8934 12.6893 24.3866C12.6578 24.8891 12.6508 25.3896 12.6515 25.8929C12.6516 25.9611 12.6517 26.0293 12.6518 26.0996C12.6647 29.1328 13.636 32.2868 15.7144 34.5714C15.781 34.5714 15.8475 34.5714 15.9161 34.5714C16.0558 34.3638 16.1852 34.1558 16.3131 33.9411C17.9416 31.3147 20.6087 29.6258 23.5796 28.9244C26.5918 28.276 29.7537 28.9214 32.3524 30.5378C33.8431 31.517 35.3341 32.928 36.0833 34.5714C36.5108 34.4289 36.6664 34.1173 36.9089 33.7583C36.958 33.686 37.0071 33.6137 37.0577 33.5391C37.5444 32.8064 37.9463 32.0476 38.3017 31.2437C38.3302 31.1798 38.3586 31.1159 38.3879 31.0501C39.7339 27.9559 39.6916 24.291 38.5017 21.1561C37.9323 19.7472 37.156 18.4922 36.1842 17.3279C36.0892 17.2117 36.0892 17.2117 35.9923 17.0932C35.5916 16.617 35.1533 16.2084 34.6716 15.8153C34.5772 15.7374 34.4829 15.6594 34.3856 15.579C32.0038 13.6532 29.1122 12.6422 26.0501 12.6515C25.9794 12.6516 25.9086 12.6517 25.8357 12.6518C22.9145 12.6638 20.1281 13.5764 17.832 15.412ZM18.4734 33.4425C17.4848 34.4991 17.4848 34.4991 17.0332 35.7767C17.6401 37.1242 20.0571 38.0641 21.3471 38.558C21.9788 38.7879 22.6205 38.9651 23.2771 39.1091C23.3559 39.1269 23.4348 39.1447 23.516 39.1631C24.3062 39.3263 25.0809 39.3497 25.8863 39.3486C25.9547 39.3485 26.0232 39.3484 26.0937 39.3483C29.3436 39.3346 32.6368 38.2196 34.9741 35.8823C34.867 34.6139 33.4007 33.2312 32.4847 32.4285C28.2737 29.0814 22.1323 29.4129 18.4734 33.4425Z" stroke="black"/>
<path d="M29.544 16.6519C30.7597 17.6784 31.6278 18.9926 31.7808 20.6102C31.8863 22.3789 31.4899 23.9038 30.3183 25.2765C29.2418 26.3998 27.8907 27.0527 26.3318 27.0864C25.3873 27.0939 24.5853 27.0242 23.702 26.6529C23.6284 26.6237 23.5548 26.5945 23.4789 26.5645C21.9933 25.9035 21.0492 24.596 20.4789 23.1172C19.9533 21.693 20.2358 20.0028 20.844 18.666C21.1706 18.0393 21.5905 17.5503 22.0904 17.0559C22.1473 16.9979 22.2042 16.9398 22.2628 16.88C24.2201 15.0318 27.4563 15.1066 29.544 16.6519ZM22.55 18.7985C21.8293 19.8775 21.6169 21.0031 21.8359 22.2845C22.0797 23.2187 22.6178 24.155 23.3999 24.7335C24.6347 25.4397 25.8557 25.8191 27.2781 25.4501C28.5869 24.9271 29.4902 24.0668 30.0531 22.775C30.4119 21.7802 30.3587 20.6507 29.9851 19.6702C29.4723 18.5965 28.7074 17.7979 27.6129 17.3207C25.7017 16.6627 23.8045 17.1898 22.55 18.7985Z" stroke="black"/>
</svg>
