<svg xmlns="http://www.w3.org/2000/svg" height="24" viewBox="0 0 24 24" width="24"><path d="M0 0h24v24H0V0z" fill="none"/><path d="M19.14 12.94c.04-.3.06-.61.06-.94s-.02-.64-.06-.94l2.03-1.58a.5.5 0 00.12-.65l-1.92-3.32a.5.5 0 00-.61-.22l-2.39.96a7.03 7.03 0 00-1.62-.94l-.36-2.54A.486.486 0 0014 2h-4a.486.486 0 00-.5.41l-.36 2.54c-.59.22-1.14.52-1.62.94l-2.39-.96a.5.5 0 00-.61.22l-1.92 3.32a.5.5 0 00.12.65l2.03 1.58c-.04.3-.06.61-.06.94s.02.64.06.94l-2.03 1.58a.5.5 0 00-.12.65l1.92 3.32c.14.24.44.32.68.22l2.39-.96c.48.42 1.03.77 1.62.94l.36 2.54c.05.28.28.41.5.41h4c.22 0 .45-.13.5-.41l.36-2.54c.59-.17 1.14-.52 1.62-.94l2.39.96c.24.1.54.02.68-.22l1.92-3.32a.5.5 0 00-.12-.65l-2.03-1.58zM12 15.5A3.5 3.5 0 1115.5 12 3.5 3.5 0 0112 15.5z"/></svg>
