<svg width="26" height="26" viewBox="0 0 26 26" fill="none" xmlns="http://www.w3.org/2000/svg">
<rect width="25" height="25" rx="12.5" fill="#FFC700"/>
<path d="M12.1208 5.84675C12.16 5.84579 12.1992 5.84483 12.2396 5.84384C12.5137 5.84184 12.6976 5.87372 12.9071 6.05401C13.0973 6.28062 13.1482 6.45596 13.1416 6.75258C13.1153 7.0138 13 7.17169 12.8027 7.33765C12.6566 7.43584 12.5205 7.46101 12.3466 7.47448C12.3038 7.47807 12.2609 7.48166 12.2168 7.48536C12.1943 7.48716 12.1718 7.48897 12.1487 7.49083C10.7624 7.60473 9.52488 8.12532 8.569 9.16486C7.66504 10.2378 7.21757 11.5788 7.33633 12.9795C7.44607 14.0843 7.90781 15.0662 8.64902 15.8845C8.64916 15.847 8.64929 15.8095 8.64943 15.7709C8.65016 15.6304 8.65197 15.4899 8.65409 15.3495C8.65485 15.2889 8.65533 15.2284 8.65551 15.1678C8.6579 14.4967 8.6579 14.4967 8.84824 14.2575C9.03294 14.0816 9.21427 13.9922 9.4708 13.9794C9.7234 13.9863 9.93226 14.0623 10.1079 14.2471C10.297 14.4641 10.324 14.7414 10.3221 15.0176C10.3223 15.0646 10.3223 15.0646 10.3226 15.1126C10.323 15.2153 10.3227 15.3181 10.3224 15.4208C10.3225 15.4927 10.3226 15.5646 10.3227 15.6365C10.3228 15.7868 10.3226 15.937 10.3222 16.0873C10.3216 16.2795 10.3219 16.4717 10.3225 16.664C10.3229 16.8123 10.3228 16.9606 10.3225 17.1089C10.3224 17.1798 10.3225 17.2506 10.3228 17.3215C10.323 17.4207 10.3226 17.5198 10.3221 17.619C10.3223 17.648 10.3225 17.677 10.3227 17.7068C10.3199 17.9797 10.2433 18.2451 10.0436 18.4411C9.82176 18.5881 9.62435 18.6315 9.36211 18.6286C9.32891 18.6289 9.29572 18.6292 9.26152 18.6295C9.1528 18.6302 9.04412 18.6297 8.9354 18.6292C8.85925 18.6293 8.7831 18.6295 8.70695 18.6297C8.54775 18.6299 8.38857 18.6296 8.22938 18.6288C8.02596 18.6278 7.82257 18.6284 7.61916 18.6294C7.46203 18.63 7.30491 18.6298 7.14778 18.6293C7.07281 18.6292 6.99783 18.6294 6.92286 18.6298C6.81782 18.6302 6.71284 18.6295 6.60781 18.6286C6.57723 18.6289 6.54666 18.6293 6.51516 18.6296C6.26191 18.6255 6.03374 18.5498 5.85269 18.3665C5.72193 18.1429 5.62213 17.9444 5.66074 17.6774C5.735 17.4267 5.82937 17.2281 6.06073 17.0935C6.30959 16.9716 6.5725 16.9873 6.8436 16.9864C6.89648 16.9856 6.94935 16.9848 7.00222 16.9839C7.13059 16.9818 7.25892 16.9807 7.3873 16.9802C7.36802 16.9593 7.34873 16.9384 7.32886 16.9169C7.17218 16.7453 7.02412 16.5732 6.89133 16.3825C6.86628 16.3467 6.86628 16.3467 6.84071 16.3101C5.80803 14.8045 5.46019 12.9851 5.77927 11.1964C6.09613 9.57453 7.0525 8.03567 8.4166 7.08565C8.43561 7.07216 8.45462 7.05867 8.4742 7.04477C9.53891 6.29194 10.8151 5.85749 12.1208 5.84675Z" fill="white"/>
<path d="M15.64 6.89972C15.6732 6.89943 15.7064 6.89913 15.7406 6.89883C15.8493 6.89811 15.958 6.89859 16.0667 6.89915C16.1428 6.89904 16.219 6.89888 16.2951 6.89867C16.4543 6.89842 16.6135 6.89878 16.7727 6.89955C16.9761 6.9005 17.1795 6.89995 17.3829 6.89896C17.5401 6.89836 17.6972 6.89855 17.8543 6.89898C17.9293 6.89909 18.0043 6.89896 18.0792 6.89857C18.1843 6.89815 18.2892 6.8988 18.3943 6.89972C18.4249 6.89938 18.4554 6.89904 18.4869 6.8987C18.7352 6.9027 18.9623 6.97223 19.1404 7.15282C19.2938 7.34057 19.3572 7.53913 19.3496 7.78318C19.3236 7.99537 19.2241 8.19617 19.0757 8.34893C18.8093 8.54291 18.5231 8.54073 18.2083 8.54193C18.1602 8.5427 18.1121 8.54354 18.0641 8.54445C17.9475 8.54652 17.831 8.54761 17.7144 8.54815C17.7369 8.58158 17.7594 8.61501 17.7826 8.64945C18.7936 10.1687 19.2146 11.9431 18.8871 13.7513C18.6746 14.8086 18.2319 15.8128 17.5484 16.6497C17.5231 16.6807 17.5231 16.6807 17.4974 16.7122C16.902 17.4352 16.1892 18.0127 15.357 18.4427C15.3239 18.4599 15.3239 18.4599 15.2901 18.4774C14.5319 18.8659 13.2611 19.3737 12.4037 19.1099C12.1505 18.992 12.0152 18.8319 11.9038 18.5755C11.867 18.3163 11.8832 18.0776 12.0162 17.8492C12.1801 17.6338 12.3793 17.542 12.6449 17.5012C12.7326 17.49 12.8204 17.4797 12.9082 17.4694C14.0617 17.3218 15.0593 16.8289 15.8882 16.0189C15.9072 16.0006 15.9261 15.9824 15.9457 15.9636C16.8166 15.1136 17.3055 13.8505 17.3277 12.6441C17.3338 11.5693 17.0682 10.503 16.4315 9.61981C16.4094 9.58906 16.4094 9.58906 16.3868 9.5577C16.3757 9.5423 16.3645 9.5269 16.3531 9.51104C16.3526 9.57383 16.3526 9.57383 16.3521 9.63789C16.3508 9.79408 16.3486 9.95026 16.3462 10.1064C16.3452 10.1739 16.3445 10.2413 16.3441 10.3087C16.3434 10.406 16.3418 10.5033 16.3401 10.6005C16.3401 10.6304 16.34 10.6602 16.34 10.691C16.3343 10.9387 16.269 11.1122 16.104 11.2978C15.8969 11.479 15.7239 11.5541 15.445 11.5465C15.1884 11.5171 15.0096 11.4135 14.8414 11.2206C14.7082 10.9955 14.6782 10.7692 14.6795 10.5118C14.6793 10.4806 14.679 10.4493 14.6788 10.4171C14.6782 10.3147 14.6783 10.2123 14.6785 10.1099C14.6784 10.0381 14.6782 9.9664 14.678 9.89467C14.6777 9.74466 14.6778 9.59465 14.6781 9.44464C14.6785 9.25303 14.6778 9.06143 14.6768 8.86982C14.6762 8.72178 14.6762 8.57374 14.6764 8.4257C14.6764 8.35508 14.6762 8.28446 14.6758 8.21384C14.6753 8.11485 14.6757 8.0159 14.6763 7.91691C14.6759 7.88815 14.6756 7.85938 14.6753 7.82975C14.6783 7.58003 14.7554 7.37497 14.8797 7.15984C15.1019 6.95516 15.3456 6.89648 15.64 6.89972Z" fill="white"/>
</svg>
