<svg width="65" height="24" viewBox="0 0 65 24" fill="none" xmlns="http://www.w3.org/2000/svg">
<path d="M15 6L9 12L15 18" stroke="black" stroke-width="2" stroke-linecap="round" stroke-linejoin="round"/>
<path d="M38.65 10.418C39.098 10.6327 39.4527 10.9407 39.714 11.342C39.9847 11.7433 40.12 12.2053 40.12 12.728C40.12 13.512 39.8447 14.17 39.294 14.702C38.7433 15.234 38.0713 15.5 37.278 15.5H33.05V5.7H36.97C37.7353 5.7 38.384 5.95667 38.916 6.47C39.448 6.98333 39.714 7.618 39.714 8.374C39.714 9.242 39.3593 9.92333 38.65 10.418ZM36.97 6.918H34.352V9.914H36.97C37.3807 9.914 37.726 9.76933 38.006 9.48C38.286 9.19067 38.426 8.836 38.426 8.416C38.426 8.00533 38.2813 7.65533 37.992 7.366C37.712 7.06733 37.3713 6.918 36.97 6.918ZM37.278 14.282C37.7167 14.282 38.0853 14.128 38.384 13.82C38.6827 13.512 38.832 13.134 38.832 12.686C38.832 12.2473 38.678 11.874 38.37 11.566C38.0713 11.258 37.7073 11.104 37.278 11.104H34.352V14.282H37.278ZM47.3743 8.5H48.5923V15.5H47.3743V14.296C46.7676 15.22 45.8856 15.682 44.7283 15.682C43.7483 15.682 42.913 15.3273 42.2223 14.618C41.5316 13.8993 41.1863 13.0267 41.1863 12C41.1863 10.9733 41.5316 10.1053 42.2223 9.396C42.913 8.67733 43.7483 8.318 44.7283 8.318C45.8856 8.318 46.7676 8.78 47.3743 9.704V8.5ZM44.8823 14.506C45.5916 14.506 46.1843 14.268 46.6603 13.792C47.1363 13.3067 47.3743 12.7093 47.3743 12C47.3743 11.2907 47.1363 10.698 46.6603 10.222C46.1843 9.73667 45.5916 9.494 44.8823 9.494C44.1823 9.494 43.5943 9.73667 43.1183 10.222C42.6423 10.698 42.4043 11.2907 42.4043 12C42.4043 12.7093 42.6423 13.3067 43.1183 13.792C43.5943 14.268 44.1823 14.506 44.8823 14.506ZM53.7277 15.682C52.673 15.682 51.7957 15.332 51.0957 14.632C50.3957 13.9227 50.0457 13.0453 50.0457 12C50.0457 10.9547 50.3957 10.082 51.0957 9.382C51.7957 8.67267 52.673 8.318 53.7277 8.318C54.4183 8.318 55.039 8.486 55.5897 8.822C56.1403 9.14867 56.551 9.592 56.8217 10.152L55.7997 10.74C55.6223 10.3667 55.347 10.068 54.9737 9.844C54.6097 9.62 54.1943 9.508 53.7277 9.508C53.0277 9.508 52.4397 9.746 51.9637 10.222C51.497 10.698 51.2637 11.2907 51.2637 12C51.2637 12.7 51.497 13.288 51.9637 13.764C52.4397 14.24 53.0277 14.478 53.7277 14.478C54.1943 14.478 54.6143 14.3707 54.9877 14.156C55.361 13.932 55.6457 13.6333 55.8417 13.26L56.8777 13.862C56.579 14.4127 56.1497 14.856 55.5897 15.192C55.0297 15.5187 54.409 15.682 53.7277 15.682ZM64.0023 15.5H62.4903L59.2983 12.182V15.5H58.0802V5.7H59.2983V11.594L62.3223 8.5H63.8903L60.5443 11.888L64.0023 15.5Z" fill="black"/>
</svg>
