<svg width="21" height="11" viewBox="0 0 21 11" fill="none" xmlns="http://www.w3.org/2000/svg">
<path d="M19.8779 8.40798C19.7922 8.45683 19.6978 8.4883 19.5999 8.5006C19.5021 8.5129 19.4028 8.50579 19.3077 8.47966C19.2126 8.45354 19.1236 8.40892 19.0458 8.34836C18.9679 8.2878 18.9028 8.21248 18.8541 8.12673L17.0729 5.01423C16.0373 5.71442 14.895 6.24191 13.6904 6.5761L14.2407 9.87798C14.2569 9.97518 14.2539 10.0746 14.2316 10.1706C14.2094 10.2667 14.1685 10.3574 14.1112 10.4375C14.0539 10.5177 13.9814 10.5858 13.8978 10.638C13.8141 10.6901 13.721 10.7253 13.6238 10.7414C13.5838 10.748 13.5434 10.7514 13.5029 10.7517C13.3255 10.7515 13.1539 10.6883 13.0186 10.5735C12.8834 10.4586 12.7932 10.2996 12.7641 10.1245L12.2232 6.88266C11.0824 7.04141 9.9252 7.04141 8.78444 6.88266L8.24351 10.1245C8.2144 10.2999 8.12396 10.4592 7.98831 10.5741C7.85267 10.6889 7.68063 10.7519 7.50288 10.7517C7.46142 10.7516 7.42005 10.7481 7.37913 10.7414C7.28191 10.7253 7.18883 10.6901 7.1052 10.638C7.02157 10.5858 6.94904 10.5177 6.89175 10.4375C6.83446 10.3574 6.79354 10.2667 6.77132 10.1706C6.7491 10.0746 6.74602 9.97518 6.76226 9.87798L7.31538 6.5761C6.11128 6.24085 4.96957 5.71242 3.93476 5.01141L2.15913 8.12673C2.05968 8.30003 1.89545 8.42672 1.70258 8.47894C1.50971 8.53116 1.304 8.50462 1.13069 8.40516C0.957392 8.30571 0.830697 8.14148 0.778479 7.94861C0.726262 7.75574 0.752801 7.55003 0.852257 7.37673L2.72726 4.09548C2.06866 3.52649 1.46305 2.89892 0.917882 2.22048C0.849893 2.14456 0.798088 2.05559 0.765628 1.959C0.733168 1.8624 0.720734 1.7602 0.729085 1.65863C0.737437 1.55707 0.766399 1.45828 0.814203 1.36828C0.862007 1.27828 0.92765 1.19897 1.00713 1.13518C1.0866 1.0714 1.17824 1.02448 1.27645 0.997288C1.37467 0.970098 1.47739 0.963208 1.57835 0.977039C1.67932 0.99087 1.7764 1.02513 1.86368 1.07773C1.95097 1.13033 2.02661 1.20017 2.08601 1.28298C3.64226 3.2086 6.36476 5.50173 10.5029 5.50173C14.641 5.50173 17.3635 3.20579 18.9198 1.28298C18.9785 1.19847 19.054 1.12696 19.1415 1.07287C19.229 1.01879 19.3268 0.983305 19.4286 0.968617C19.5305 0.953929 19.6342 0.960357 19.7335 0.987499C19.8328 1.01464 19.9254 1.06192 20.0056 1.12639C20.0858 1.19086 20.1518 1.27114 20.1997 1.36224C20.2475 1.45335 20.2761 1.55332 20.2837 1.65594C20.2912 1.75857 20.2775 1.86164 20.2435 1.95876C20.2095 2.05588 20.1559 2.14497 20.086 2.22048C19.5408 2.89892 18.9352 3.52649 18.2766 4.09548L20.1516 7.37673C20.202 7.46226 20.2348 7.55693 20.2483 7.65526C20.2618 7.75358 20.2556 7.8536 20.2301 7.94953C20.2047 8.04545 20.1604 8.13536 20.1 8.21406C20.0395 8.29275 19.964 8.35867 19.8779 8.40798Z" fill="black"/>
</svg>
