<svg width="25" height="24" viewBox="0 0 25 24" fill="none" xmlns="http://www.w3.org/2000/svg">
<path d="M16.0799 12.0003C16.0799 12.6582 15.87 13.3014 15.4766 13.8484C15.0832 14.3955 14.5241 14.8218 13.8699 15.0736C13.2158 15.3254 12.496 15.3913 11.8015 15.2629C11.107 15.1345 10.4692 14.8177 9.96848 14.3525C9.46781 13.8873 9.12685 13.2945 8.98871 12.6492C8.85058 12.004 8.92147 11.3351 9.19243 10.7273C9.4634 10.1194 9.92225 9.59987 10.511 9.23435C11.0997 8.86882 11.7919 8.67372 12.4999 8.67372C12.9702 8.67323 13.436 8.75894 13.8706 8.92595C14.3051 9.09295 14.7 9.33796 15.0325 9.64696C15.3651 9.95595 15.6288 10.3229 15.8085 10.7267C15.9882 11.1305 16.0804 11.5633 16.0799 12.0003V12.0003Z" stroke="#0A0909" stroke-width="1.5" stroke-linecap="round" stroke-linejoin="round"/>
<path d="M12.4998 19.6839C16.0298 19.6839 19.3198 17.7511 21.6098 14.406C22.0524 13.6689 22.2847 12.8388 22.2847 11.9947C22.2847 11.1506 22.0524 10.3206 21.6098 9.58343C19.3148 6.2383 16.0298 4.30556 12.4998 4.30556C8.96979 4.30556 5.6798 6.2383 3.3898 9.58343C2.94719 10.3206 2.71484 11.1506 2.71484 11.9947C2.71484 12.8388 2.94719 13.6689 3.3898 14.406C5.6798 17.7511 8.96979 19.6839 12.4998 19.6839Z" stroke="#0A0909" stroke-width="1.5" stroke-linecap="round" stroke-linejoin="round"/>
</svg>
