<svg width="25" height="24" viewBox="0 0 25 24" fill="none" xmlns="http://www.w3.org/2000/svg">
<path d="M15.2815 9.47L10.2645 14.53C9.93256 14.1983 9.66883 13.8038 9.48848 13.369C9.30814 12.9342 9.21473 12.4678 9.21363 11.9965C9.21253 11.5252 9.30376 11.0584 9.48207 10.6227C9.66038 10.1871 9.92227 9.7913 10.2527 9.45805C10.5831 9.1248 10.9755 8.86067 11.4075 8.68083C11.8394 8.50099 12.3023 8.40898 12.7696 8.41009C13.2368 8.4112 13.6993 8.50541 14.1304 8.6873C14.5615 8.86919 14.9527 9.13518 15.2815 9.47V9.47Z" stroke="#1D1D1B" stroke-width="1.5" stroke-linecap="round" stroke-linejoin="round"/>
<path d="M18.5387 5.77C16.8902 4.47148 14.8646 3.75478 12.7731 3.73C9.27308 3.73 6.01104 5.81 3.7405 9.41C3.30166 10.2033 3.07129 11.0966 3.07129 12.005C3.07129 12.9134 3.30166 13.8067 3.7405 14.6C4.47805 15.7832 5.3833 16.8512 6.42747 17.77" stroke="#1D1D1B" stroke-width="1.5" stroke-linecap="round" stroke-linejoin="round"/>
<path d="M9.22339 19.53C10.3457 20.0133 11.5526 20.2649 12.773 20.27C16.273 20.27 19.535 18.19 21.8055 14.59C22.2444 13.7967 22.4748 12.9034 22.4748 11.995C22.4748 11.0866 22.2444 10.1933 21.8055 9.39999C21.4826 8.89062 21.1318 8.39986 20.7545 7.92999" stroke="#1D1D1B" stroke-width="1.5" stroke-linecap="round" stroke-linejoin="round"/>
<path d="M16.2526 12.7002C16.1183 13.3978 15.7803 14.0389 15.2821 14.5414C14.7839 15.0439 14.1482 15.3847 13.4565 15.5202" stroke="#1D1D1B" stroke-width="1.5" stroke-linecap="round" stroke-linejoin="round"/>
<path d="M10.2644 14.53L2.85791 22" stroke="#1D1D1B" stroke-width="1.5" stroke-linecap="round" stroke-linejoin="round"/>
<path d="M22.6873 2L15.2808 9.47" stroke="#1D1D1B" stroke-width="1.5" stroke-linecap="round" stroke-linejoin="round"/>
</svg>
