<svg width="27" height="21" viewBox="0 0 27 21" fill="none" xmlns="http://www.w3.org/2000/svg">
<path d="M13.8022 0C11.1971 0 8.80255 0.948009 6.96335 2.51562C6.87116 2.5888 6.7947 2.67973 6.73851 2.78301C6.68233 2.88628 6.64758 2.99978 6.63633 3.11673C6.62508 3.23368 6.63757 3.35169 6.67305 3.46373C6.70852 3.57577 6.76626 3.67953 6.84283 3.76884C6.91939 3.85815 7.0132 3.93117 7.11868 3.98356C7.22415 4.03594 7.33912 4.06661 7.45674 4.07373C7.57435 4.08086 7.69221 4.0643 7.80327 4.02504C7.91433 3.98578 8.01632 3.92462 8.10316 3.84521C9.63734 2.53758 11.6229 1.75 13.8022 1.75C18.3626 1.75 22.0961 5.19568 22.5351 9.625H19.9452L23.4555 14.875L26.9658 9.625H24.2885C23.8398 4.2452 19.3115 0 13.8022 0ZM4.14895 6.125L0.638672 11.375H3.31595C3.76464 16.7548 8.29298 21 13.8022 21C16.4074 21 18.8019 20.052 20.6411 18.4844C20.7333 18.4112 20.8098 18.3203 20.866 18.217C20.9221 18.1137 20.9569 18.0002 20.9681 17.8833C20.9794 17.7663 20.9669 17.6483 20.9314 17.5363C20.8959 17.4242 20.8382 17.3205 20.7616 17.2312C20.6851 17.1418 20.5913 17.0688 20.4858 17.0164C20.3803 16.9641 20.2653 16.9334 20.1477 16.9263C20.0301 16.9191 19.9123 16.9357 19.8012 16.975C19.6901 17.0142 19.5881 17.0754 19.5013 17.1548C17.9671 18.4624 15.9816 19.25 13.8022 19.25C9.24188 19.25 5.50832 15.8043 5.06938 11.375H7.65924L4.14895 6.125Z" fill="#1C274C"/>
</svg>
