<svg width="24" height="24" viewBox="0 0 24 24" fill="none" xmlns="http://www.w3.org/2000/svg">
<rect width="24" height="24" rx="8" fill="#E6EBFF"/>
<path d="M4.125 11.8749C4.19066 11.9242 4.26538 11.96 4.34489 11.9804C4.4244 12.0007 4.50714 12.0052 4.58839 11.9936C4.66964 11.982 4.74781 11.9545 4.81843 11.9127C4.88906 11.8709 4.95075 11.8156 5 11.7499C5.37841 11.2454 5.86909 10.8359 6.43319 10.5538C6.99729 10.2718 7.61932 10.1249 8.25 10.1249C8.88068 10.1249 9.5027 10.2718 10.0668 10.5538C10.6309 10.8359 11.1216 11.2454 11.5 11.7499C11.5996 11.8824 11.7477 11.9699 11.9118 11.9932C12.0759 12.0165 12.2425 11.9737 12.375 11.8741C12.4222 11.839 12.4641 11.7972 12.4992 11.7499C12.8776 11.2454 13.3683 10.8359 13.9324 10.5538C14.4965 10.2718 15.1185 10.1249 15.7492 10.1249C16.3799 10.1249 17.0019 10.2718 17.566 10.5538C18.1301 10.8359 18.6208 11.2454 18.9992 11.7499C19.0988 11.8825 19.2469 11.9701 19.4111 11.9935C19.5753 12.0169 19.742 11.9741 19.8746 11.8745C20.0072 11.775 20.0948 11.6268 20.1182 11.4626C20.1416 11.2985 20.0988 11.1317 19.9992 10.9991C19.446 10.2575 18.7083 9.67353 17.8594 9.30538C18.3248 8.88049 18.6508 8.32483 18.7947 7.71132C18.9387 7.09781 18.8938 6.45511 18.6659 5.86759C18.438 5.28006 18.0379 4.77514 17.5179 4.41911C16.998 4.06308 16.3825 3.87256 15.7523 3.87256C15.1222 3.87256 14.5067 4.06308 13.9868 4.41911C13.4668 4.77514 13.0667 5.28006 12.8388 5.86759C12.6109 6.45511 12.566 7.09781 12.7099 7.71132C12.8539 8.32483 13.1799 8.88049 13.6453 9.30538C13.0324 9.57042 12.4756 9.94985 12.0047 10.4233C11.5338 9.94985 10.977 9.57042 10.3641 9.30538C10.8294 8.88049 11.1555 8.32483 11.2994 7.71132C11.4434 7.09781 11.3984 6.45511 11.1706 5.86759C10.9427 5.28006 10.5426 4.77514 10.0226 4.41911C9.50265 4.06308 8.8872 3.87256 8.25703 3.87256C7.62686 3.87256 7.01142 4.06308 6.49146 4.41911C5.97151 4.77514 5.57134 5.28006 5.34348 5.86759C5.11562 6.45511 5.0707 7.09781 5.21464 7.71132C5.35857 8.32483 5.68462 8.88049 6.15 9.30538C5.29738 9.67233 4.55602 10.2566 4 10.9999C3.95075 11.0656 3.91492 11.1403 3.89455 11.2198C3.87418 11.2993 3.86967 11.382 3.88128 11.4633C3.89289 11.5446 3.92039 11.6227 3.9622 11.6933C4.00402 11.764 4.05934 11.8257 4.125 11.8749ZM15.75 5.12491C16.1208 5.12491 16.4834 5.23488 16.7917 5.44091C17.1 5.64693 17.3404 5.93977 17.4823 6.28238C17.6242 6.62499 17.6613 7.00199 17.589 7.36571C17.5166 7.72942 17.338 8.06351 17.0758 8.32574C16.8136 8.58796 16.4795 8.76654 16.1158 8.83888C15.7521 8.91123 15.3751 8.8741 15.0325 8.73219C14.6899 8.59027 14.397 8.34995 14.191 8.04161C13.985 7.73326 13.875 7.37075 13.875 6.99991C13.875 6.50263 14.0725 6.02572 14.4242 5.67409C14.7758 5.32246 15.2527 5.12491 15.75 5.12491ZM8.25 5.12491C8.62084 5.12491 8.98335 5.23488 9.29169 5.44091C9.60004 5.64693 9.84036 5.93977 9.98227 6.28238C10.1242 6.62499 10.1613 7.00199 10.089 7.36571C10.0166 7.72942 9.83805 8.06351 9.57583 8.32574C9.3136 8.58796 8.97951 8.76654 8.61579 8.83888C8.25208 8.91123 7.87508 8.8741 7.53247 8.73219C7.18986 8.59027 6.89702 8.34995 6.69099 8.04161C6.48497 7.73326 6.375 7.37075 6.375 6.99991C6.375 6.50263 6.57254 6.02572 6.92417 5.67409C7.27581 5.32246 7.75272 5.12491 8.25 5.12491ZM17.8594 17.4304C18.3248 17.0055 18.6508 16.4498 18.7947 15.8363C18.9387 15.2228 18.8938 14.5801 18.6659 13.9926C18.438 13.4051 18.0379 12.9001 17.5179 12.5441C16.998 12.1881 16.3825 11.9976 15.7523 11.9976C15.1222 11.9976 14.5067 12.1881 13.9868 12.5441C13.4668 12.9001 13.0667 13.4051 12.8388 13.9926C12.6109 14.5801 12.566 15.2228 12.7099 15.8363C12.8539 16.4498 13.1799 17.0055 13.6453 17.4304C13.0324 17.6954 12.4756 18.0748 12.0047 18.5483C11.5338 18.0748 10.977 17.6954 10.3641 17.4304C10.8294 17.0055 11.1555 16.4498 11.2994 15.8363C11.4434 15.2228 11.3984 14.5801 11.1706 13.9926C10.9427 13.4051 10.5426 12.9001 10.0226 12.5441C9.50265 12.1881 8.8872 11.9976 8.25703 11.9976C7.62686 11.9976 7.01142 12.1881 6.49146 12.5441C5.97151 12.9001 5.57134 13.4051 5.34348 13.9926C5.11562 14.5801 5.0707 15.2228 5.21464 15.8363C5.35857 16.4498 5.68462 17.0055 6.15 17.4304C5.29738 17.7973 4.55602 18.3816 4 19.1249C3.95075 19.1906 3.91492 19.2653 3.89455 19.3448C3.87418 19.4243 3.86967 19.507 3.88128 19.5883C3.89289 19.6696 3.92039 19.7477 3.9622 19.8183C4.00402 19.889 4.05934 19.9507 4.125 19.9999C4.19066 20.0492 4.26538 20.085 4.34489 20.1054C4.4244 20.1257 4.50714 20.1302 4.58839 20.1186C4.66964 20.107 4.74781 20.0795 4.81843 20.0377C4.88906 19.9959 4.95075 19.9406 5 19.8749C5.37841 19.3704 5.86909 18.9609 6.43319 18.6788C6.99729 18.3968 7.61932 18.2499 8.25 18.2499C8.88068 18.2499 9.5027 18.3968 10.0668 18.6788C10.6309 18.9609 11.1216 19.3704 11.5 19.8749C11.5996 20.0074 11.7477 20.0949 11.9118 20.1182C12.0759 20.1415 12.2425 20.0987 12.375 19.9991C12.4222 19.964 12.4641 19.9222 12.4992 19.8749C12.8776 19.3704 13.3683 18.9609 13.9324 18.6788C14.4965 18.3968 15.1185 18.2499 15.7492 18.2499C16.3799 18.2499 17.0019 18.3968 17.566 18.6788C18.1301 18.9609 18.6208 19.3704 18.9992 19.8749C19.0988 20.0075 19.2469 20.0951 19.4111 20.1185C19.5753 20.1419 19.742 20.0991 19.8746 19.9995C20.0072 19.9 20.0948 19.7518 20.1182 19.5876C20.1416 19.4235 20.0988 19.2567 19.9992 19.1241C19.446 18.3825 18.7083 17.7985 17.8594 17.4304ZM8.25 13.2499C8.62084 13.2499 8.98335 13.3599 9.29169 13.5659C9.60004 13.7719 9.84036 14.0648 9.98227 14.4074C10.1242 14.75 10.1613 15.127 10.089 15.4907C10.0166 15.8544 9.83805 16.1885 9.57583 16.4507C9.3136 16.713 8.97951 16.8915 8.61579 16.9639C8.25208 17.0362 7.87508 16.9991 7.53247 16.8572C7.18986 16.7153 6.89702 16.4749 6.69099 16.1666C6.48497 15.8583 6.375 15.4958 6.375 15.1249C6.375 14.6276 6.57254 14.1507 6.92417 13.7991C7.27581 13.4475 7.75272 13.2499 8.25 13.2499ZM15.75 13.2499C16.1208 13.2499 16.4834 13.3599 16.7917 13.5659C17.1 13.7719 17.3404 14.0648 17.4823 14.4074C17.6242 14.75 17.6613 15.127 17.589 15.4907C17.5166 15.8544 17.338 16.1885 17.0758 16.4507C16.8136 16.713 16.4795 16.8915 16.1158 16.9639C15.7521 17.0362 15.3751 16.9991 15.0325 16.8572C14.6899 16.7153 14.397 16.4749 14.191 16.1666C13.985 15.8583 13.875 15.4958 13.875 15.1249C13.875 14.6276 14.0725 14.1507 14.4242 13.7991C14.7758 13.4475 15.2527 13.2499 15.75 13.2499Z" fill="#002CBA"/>
</svg>
