<svg width="52" height="52" viewBox="0 0 52 52" fill="none" xmlns="http://www.w3.org/2000/svg">
<path d="M26 47.6667C30.2853 47.6667 34.4743 46.3959 38.0374 44.0152C41.6005 41.6344 44.3775 38.2505 46.0174 34.2915C47.6573 30.3324 48.0864 25.976 47.2504 21.773C46.4144 17.5701 44.3508 13.7095 41.3207 10.6794C38.2906 7.64922 34.4299 5.58567 30.227 4.74966C26.0241 3.91364 21.6676 4.34272 17.7086 5.98261C13.7495 7.62251 10.3656 10.3996 7.98487 13.9626C5.6041 17.5257 4.33337 21.7147 4.33337 26C4.34995 31.7413 6.63801 37.2426 10.6977 41.3023C14.7574 45.362 20.2588 47.6501 26 47.6667V47.6667Z" stroke="#52AE32" stroke-width="3.25" stroke-linecap="round" stroke-linejoin="round"/>
<path d="M16.7916 26L22.9233 32.1317L35.2083 19.8683" stroke="#52AE32" stroke-width="3.25" stroke-linecap="round" stroke-linejoin="round"/>
</svg>
