<svg width="1440" height="807" viewBox="0 0 1440 807" fill="none" xmlns="http://www.w3.org/2000/svg">
<g clip-path="url(#clip0_709_14443)">
<rect width="1440" height="807" fill="#DDEAFF"/>
<path d="M-0.500014 354C43.1281 354 84.9693 336.669 115.819 305.819C146.669 274.969 164 233.128 164 189.5C164 145.872 146.669 104.031 115.819 73.1809C84.9694 42.3312 43.1281 25 -0.499969 25L-0.500006 152.853C9.21935 152.853 18.5406 156.714 25.4132 163.587C32.2859 170.459 36.1469 179.781 36.1468 189.5C36.1468 199.219 32.2859 208.541 25.4132 215.413C18.5406 222.286 9.21934 226.147 -0.500009 226.147L-0.500014 354Z" fill="#B9C9FF"/>
<path d="M-0.500014 354C43.1281 354 84.9693 336.669 115.819 305.819C146.669 274.969 164 233.128 164 189.5C164 145.872 146.669 104.031 115.819 73.1809C84.9694 42.3312 43.1281 25 -0.499969 25L-0.499988 104.574C22.0239 104.574 43.6253 113.521 59.5521 129.448C75.4788 145.375 84.4264 166.976 84.4264 189.5C84.4264 212.024 75.4788 233.625 59.552 249.552C43.6252 265.479 22.0239 274.426 -0.500011 274.426L-0.500014 354Z" fill="#002CBA" fill-opacity="0.15"/>
<path d="M1440 549C1411.62 549 1384.41 560.273 1364.34 580.34C1344.27 600.406 1333 627.622 1333 656C1333 684.378 1344.27 711.594 1364.34 731.66C1384.41 751.727 1411.62 763 1440 763L1440 708.433C1426.09 708.433 1412.76 702.909 1402.92 693.076C1393.09 683.243 1387.57 669.906 1387.57 656C1387.57 642.094 1393.09 628.757 1402.92 618.924C1412.76 609.091 1426.09 603.567 1440 603.567L1440 549Z" fill="#B9C9FF"/>
<g filter="url(#filter0_f_709_14443)">
<path d="M1007.6 151.447L1013.24 159.512" stroke="#1D1D1B" stroke-width="1.5" stroke-linecap="round" stroke-linejoin="round"/>
<path d="M1007.6 159.512L1013.24 151.447" stroke="#1D1D1B" stroke-width="1.5" stroke-linecap="round" stroke-linejoin="round"/>
</g>
</g>
<defs>
<filter id="filter0_f_709_14443" x="982.441" y="124.075" width="55.959" height="62.8096" filterUnits="userSpaceOnUse" color-interpolation-filters="sRGB">
<feFlood flood-opacity="0" result="BackgroundImageFix"/>
<feBlend mode="normal" in="SourceGraphic" in2="BackgroundImageFix" result="shape"/>
<feGaussianBlur stdDeviation="10" result="effect1_foregroundBlur_709_14443"/>
</filter>
<clipPath id="clip0_709_14443">
<rect width="1440" height="807" fill="white"/>
</clipPath>
</defs>
</svg>
