<svg width="24" height="18" viewBox="0 0 24 18" fill="none" xmlns="http://www.w3.org/2000/svg">
<path fill-rule="evenodd" clip-rule="evenodd" d="M12.7678 1.90978C12.0157 2.25674 11.0625 2.85164 9.70426 3.70205L9.47371 3.84641C9.45615 3.8574 9.43884 3.86824 9.42175 3.87895C9.02137 4.12974 8.74408 4.30343 8.44021 4.43078C8.14076 4.55627 7.82605 4.64593 7.5033 4.69768C7.1758 4.7502 6.84361 4.75013 6.36396 4.75004C6.34349 4.75004 6.32275 4.75003 6.30173 4.75003C4.78142 4.75003 4.26826 4.76631 3.83195 4.958C3.41034 5.14323 2.9613 5.54443 2.74095 5.93278C2.51109 6.33789 2.46889 6.75309 2.38775 8.01726C2.36548 8.36423 2.35258 8.69681 2.35258 9.00003C2.35258 9.30325 2.36548 9.63584 2.38775 9.98281C2.46889 11.247 2.51109 11.6622 2.74095 12.0673C2.9613 12.4556 3.41034 12.8568 3.83195 13.0421C4.26826 13.2338 4.78142 13.25 6.30173 13.25C6.32275 13.25 6.34349 13.25 6.36396 13.25C6.8436 13.2499 7.1758 13.2499 7.5033 13.3024C7.82605 13.3541 8.14076 13.4438 8.44021 13.5693C8.74407 13.6966 9.02137 13.8703 9.42174 14.1211C9.43884 14.1318 9.45615 14.1427 9.4737 14.1537L9.70426 14.298C11.0625 15.1484 12.0157 15.7433 12.7678 16.0903C13.5179 16.4363 13.893 16.4502 14.1554 16.3651C14.3001 16.3183 14.4416 16.2498 14.5667 16.1664C14.7949 16.0141 15.0029 15.7195 15.1491 14.9482C15.296 14.1733 15.3502 13.1014 15.4251 11.5706C15.4799 10.451 15.5161 9.51181 15.5161 9.00003C15.5161 8.48826 15.4799 7.54902 15.4251 6.42946C15.3502 4.89871 15.296 3.82677 15.1491 3.05188C15.0029 2.28052 14.7949 1.98595 14.5667 1.8337C14.4416 1.75023 14.3001 1.68181 14.1554 1.63492C13.893 1.54989 13.5179 1.56376 12.7678 1.90978ZM12.0776 0.560551C12.9475 0.159283 13.8039 -0.0638991 14.6655 0.215307C14.9519 0.308088 15.2275 0.441276 15.475 0.606455C16.2185 1.10266 16.5333 1.88667 16.7038 2.78612C16.8714 3.67048 16.9288 4.84243 17.0002 6.30232L17.003 6.35983C17.0576 7.4748 17.0958 8.44804 17.0958 9.00003C17.0958 9.55203 17.0576 10.5253 17.003 11.6402L17.0002 11.6977C16.9288 13.1576 16.8714 14.3296 16.7038 15.2139C16.5333 16.1134 16.2185 16.8974 15.475 17.3936C15.2275 17.5588 14.9519 17.692 14.6655 17.7848C13.8039 18.064 12.9475 17.8408 12.0776 17.4395C11.2209 17.0443 10.1813 16.3934 8.88514 15.5819L8.60419 15.4059C8.13249 15.1106 7.97024 15.0119 7.80242 14.9416C7.62275 14.8663 7.43392 14.8125 7.24028 14.7814C7.0594 14.7524 6.86673 14.75 6.30173 14.75C6.24445 14.75 6.18794 14.7501 6.13217 14.7501C4.85065 14.7507 3.96021 14.7512 3.16867 14.4034C2.43699 14.082 1.73275 13.4527 1.35034 12.7788C0.936875 12.0501 0.88836 11.2881 0.819377 10.2045C0.816641 10.1615 0.813873 10.1181 0.811048 10.0741C0.787411 9.7058 0.772949 9.34161 0.772949 9.00003C0.772949 8.65845 0.787411 8.29426 0.811048 7.926C0.813873 7.882 0.816641 7.83852 0.819377 7.79554C0.88836 6.712 0.936875 5.94996 1.35034 5.22128C1.73275 4.54732 2.43699 3.9181 3.16867 3.59664C3.96021 3.24889 4.85065 3.24933 6.13216 3.24998C6.18794 3.25 6.24445 3.25003 6.30173 3.25003C6.86673 3.25003 7.0594 3.24762 7.24028 3.21862C7.43392 3.18757 7.62275 3.13377 7.80242 3.05848C7.97024 2.98815 8.13249 2.88945 8.60419 2.59411L8.88515 2.4182C10.1814 1.60662 11.2209 0.955759 12.0776 0.560551ZM20.5392 2.42408C20.8743 2.1589 21.3723 2.2019 21.6516 2.52011L21.0448 3.00024C21.6516 2.52011 21.6516 2.52011 21.6516 2.52011L21.6528 2.52148L21.6541 2.52303L21.6573 2.52664L21.6652 2.53591C21.6712 2.543 21.6786 2.55194 21.6874 2.56272C21.705 2.5843 21.7279 2.6133 21.7554 2.64986C21.8104 2.723 21.8837 2.8264 21.9689 2.96125C22.1394 3.23106 22.3572 3.62623 22.5718 4.15601C23.0017 5.21738 23.4143 6.80868 23.4143 9.00024C23.4143 11.1918 23.0017 12.7831 22.5718 13.8445C22.3572 14.3743 22.1394 14.7694 21.9689 15.0392C21.8837 15.1741 21.8104 15.2775 21.7554 15.3506C21.7279 15.3872 21.705 15.4162 21.6874 15.4378C21.6821 15.4442 21.6774 15.45 21.6731 15.4551C21.6702 15.4586 21.6676 15.4617 21.6652 15.4646L21.6573 15.4739L21.6541 15.4775L21.6528 15.479C21.6528 15.479 21.6516 15.4804 21.0448 15.0002L21.6516 15.4804C21.3723 15.7986 20.8743 15.8416 20.5392 15.5764C20.2057 15.3125 20.1593 14.8429 20.4341 14.5247M20.4341 14.5247C20.4341 14.5247 20.436 14.5224 20.4377 14.5202C20.4433 14.5134 20.4543 14.4996 20.47 14.4788C20.5014 14.4371 20.5515 14.367 20.6144 14.2675C20.7401 14.0686 20.9171 13.7512 21.0975 13.306C21.4574 12.4174 21.8346 11.0087 21.8346 9.00024C21.8346 6.99181 21.4574 5.58311 21.0975 4.69448C20.9171 4.24926 20.7401 3.93192 20.6144 3.73299C20.5515 3.63347 20.5014 3.56343 20.47 3.52172C20.4543 3.50086 20.4433 3.48709 20.4377 3.48024C20.4359 3.47803 20.4341 3.47578 20.4341 3.47578L20.4377 3.48024L20.4361 3.47812L20.4341 3.47578C20.1593 3.15763 20.2057 2.68797 20.5392 2.42408M18.5551 5.34463C18.9364 5.14347 19.4172 5.27392 19.6291 5.63601L18.9677 5.9849C19.6291 5.63602 19.6291 5.63601 19.6291 5.63601L19.6298 5.63732L19.6307 5.63872L19.6324 5.64176L19.6365 5.64888L19.6466 5.66723C19.6542 5.6813 19.6636 5.69906 19.6744 5.72057C19.696 5.76359 19.7233 5.82159 19.7543 5.89514C19.8162 6.0423 19.8927 6.25124 19.967 6.52646C20.1158 7.0774 20.255 7.89013 20.255 9.00024C20.255 10.1104 20.1158 10.9231 19.967 11.474C19.8927 11.7492 19.8162 11.9582 19.7543 12.1053C19.7233 12.1789 19.696 12.2369 19.6744 12.2799C19.6636 12.3014 19.6542 12.3192 19.6466 12.3333L19.6365 12.3516L19.6324 12.3587L19.6307 12.3618L19.6298 12.3632C19.6298 12.3632 19.6291 12.3645 18.9677 12.0156L19.6291 12.3645C19.4172 12.7266 18.9364 12.857 18.5551 12.6559C18.177 12.4564 18.0387 12.0058 18.2429 11.6453L18.2482 11.635C18.2554 11.6206 18.2692 11.5919 18.2876 11.5483C18.3243 11.4611 18.3795 11.3137 18.4369 11.1015C18.5514 10.6774 18.6754 9.99013 18.6754 9.00024C18.6754 8.01036 18.5514 7.32309 18.4369 6.89902C18.3795 6.68675 18.3243 6.53944 18.2876 6.45222C18.2692 6.40858 18.2554 6.37986 18.2482 6.36547L18.2429 6.35523C18.0388 5.99465 18.177 5.54408 18.5551 5.34463Z" fill="#1C274C"/>
</svg>
