<svg width="14" height="14" viewBox="0 0 14 14" fill="none" xmlns="http://www.w3.org/2000/svg">
<circle cx="7" cy="7.5" r="6" fill="white"/>
<path d="M7.13951 0.927734C5.86806 0.927734 4.62516 1.30476 3.56799 2.01114C2.51082 2.71752 1.68685 3.72153 1.20029 4.8962C0.713723 6.07086 0.586416 7.36343 0.834464 8.61046C1.08251 9.85748 1.69477 11.0029 2.59382 11.902C3.49288 12.801 4.63834 13.4133 5.88536 13.6613C7.13238 13.9094 8.42495 13.7821 9.59962 13.2955C10.7743 12.809 11.7783 11.985 12.4847 10.9278C13.191 9.87065 13.5681 8.62775 13.5681 7.3563C13.5654 5.65218 12.8872 4.01862 11.6822 2.81362C10.4772 1.60862 8.84364 0.930454 7.13951 0.927734ZM10.2124 5.87773L6.56737 9.52273C6.52269 9.56759 6.46959 9.60319 6.41112 9.62748C6.35266 9.65177 6.28997 9.66427 6.22665 9.66427C6.16334 9.66427 6.10065 9.65177 6.04218 9.62748C5.98371 9.60319 5.93062 9.56759 5.88594 9.52273L4.06665 7.70345C4.01928 7.65931 3.98129 7.60608 3.95494 7.54694C3.92858 7.48779 3.91442 7.42395 3.91327 7.35921C3.91213 7.29447 3.92404 7.23017 3.94829 7.17013C3.97254 7.1101 4.00863 7.05556 4.05441 7.00978C4.1002 6.964 4.15473 6.9279 4.21477 6.90365C4.2748 6.8794 4.33911 6.8675 4.40385 6.86864C4.46858 6.86978 4.53243 6.88395 4.59157 6.9103C4.65071 6.93665 4.70394 6.97465 4.74808 7.02202L6.22665 8.50059L9.53094 5.1963C9.62234 5.11114 9.74322 5.06477 9.86813 5.06698C9.99304 5.06918 10.1122 5.11978 10.2006 5.20812C10.2889 5.29646 10.3395 5.41563 10.3417 5.54054C10.3439 5.66545 10.2975 5.78633 10.2124 5.87773Z" fill="#54B749"/>
</svg>
