<svg width="19" height="19" viewBox="0 0 19 19" fill="none" xmlns="http://www.w3.org/2000/svg">
<path d="M18.5 11.5006V17.5006C18.5 17.6995 18.421 17.8903 18.2803 18.0309C18.1397 18.1716 17.9489 18.2506 17.75 18.2506H1.25C1.05109 18.2506 0.860322 18.1716 0.71967 18.0309C0.579018 17.8903 0.5 17.6995 0.5 17.5006V11.5006C0.5 11.3017 0.579018 11.1109 0.71967 10.9703C0.860322 10.8296 1.05109 10.7506 1.25 10.7506C1.44891 10.7506 1.63968 10.8296 1.78033 10.9703C1.92098 11.1109 2 11.3017 2 11.5006V16.7506H17V11.5006C17 11.3017 17.079 11.1109 17.2197 10.9703C17.3603 10.8296 17.5511 10.7506 17.75 10.7506C17.9489 10.7506 18.1397 10.8296 18.2803 10.9703C18.421 11.1109 18.5 11.3017 18.5 11.5006ZM6.28063 5.28122L8.75 2.8109V11.5006C8.75 11.6995 8.82902 11.8903 8.96967 12.0309C9.11032 12.1716 9.30109 12.2506 9.5 12.2506C9.69891 12.2506 9.88968 12.1716 10.0303 12.0309C10.171 11.8903 10.25 11.6995 10.25 11.5006V2.8109L12.7194 5.28122C12.8601 5.42195 13.051 5.50101 13.25 5.50101C13.449 5.50101 13.6399 5.42195 13.7806 5.28122C13.9214 5.14048 14.0004 4.94961 14.0004 4.75059C14.0004 4.55157 13.9214 4.3607 13.7806 4.21996L10.0306 0.469965C9.96097 0.400233 9.87825 0.344913 9.7872 0.30717C9.69616 0.269427 9.59856 0.25 9.5 0.25C9.40144 0.25 9.30384 0.269427 9.2128 0.30717C9.12175 0.344913 9.03903 0.400233 8.96937 0.469965L5.21937 4.21996C5.07864 4.3607 4.99958 4.55157 4.99958 4.75059C4.99958 4.94961 5.07864 5.14048 5.21937 5.28122C5.36011 5.42195 5.55098 5.50101 5.75 5.50101C5.94902 5.50101 6.13989 5.42195 6.28063 5.28122Z" fill="#002CBA"/>
</svg>
