<svg width="21" height="20" viewBox="0 0 21 20" fill="none" xmlns="http://www.w3.org/2000/svg">
<path d="M10.5 19C12.1811 19 13.8245 18.5015 15.2223 17.5675C16.6202 16.6335 17.7096 15.306 18.353 13.7528C18.9963 12.1996 19.1646 10.4906 18.8367 8.84174C18.5087 7.1929 17.6992 5.67834 16.5104 4.4896C15.3217 3.30085 13.8071 2.4913 12.1583 2.16333C10.5094 1.83535 8.80036 2.00368 7.24719 2.64703C5.69402 3.29037 4.3665 4.37984 3.43251 5.77766C2.49852 7.17547 2 8.81886 2 10.5C2.0065 12.7523 2.90412 14.9106 4.49678 16.5032C6.08943 18.0959 8.24766 18.9935 10.5 19V19Z" stroke="#52AE32" stroke-width="2" stroke-linecap="round" stroke-linejoin="round"/>
<path d="M6.78809 9.99115L9.26434 12.3495L14.2256 7.63281" stroke="#52AE32" stroke-width="2" stroke-linecap="round" stroke-linejoin="round"/>
</svg>
